<svg width="150" height="150" viewBox="0 0 150 150" fill="none" xmlns="http://www.w3.org/2000/svg">
<path d="M24.7868 29.3765C24.947 29.3682 25.0985 29.3008 25.2119 29.1874C25.3254 29.0739 25.3928 28.9225 25.4011 28.7622C25.4011 28.3941 24.9709 27.9639 24.7868 28.148L21.4072 28.5276V29.1418C22.6979 28.7714 23.7423 29.1418 24.7868 29.3857" fill="#007549"/>
<path d="M23.4363 31.3436C23.5964 31.3348 23.7476 31.2672 23.8609 31.1539C23.9742 31.0405 24.0418 30.8894 24.0506 30.7293C24.0606 30.6462 24.0516 30.562 24.0243 30.4829C23.997 30.4038 23.952 30.332 23.8929 30.2728C23.8337 30.2136 23.7619 30.1687 23.6828 30.1414C23.6037 30.114 23.5194 30.105 23.4363 30.1151L20.0567 30.7293V31.3436C21.3451 30.8536 22.3298 31.1595 23.4363 31.3436Z" fill="#007549"/>
<path d="M22.2055 33.3727C22.3656 33.3639 22.5167 33.2963 22.6301 33.183C22.7434 33.0696 22.811 32.9185 22.8198 32.7584C22.8198 32.3282 22.3919 32.1418 22.0215 32.1418L18.635 32.9425L18.819 33.3727C20.1718 32.8182 21.1541 33.1886 22.1986 33.3727" fill="#007549"/>
<path d="M20.7929 35.5836C21.2232 35.5836 21.4072 35.3995 21.4072 34.9693C21.2232 34.5391 20.977 34.355 20.6089 34.355L17.2293 35.3374L17.4133 35.7676C18.5798 35.3995 19.8106 35.5238 20.7929 35.5836Z" fill="#007549"/>
<path d="M19.6265 37.7301C19.8106 37.7301 20.0568 37.362 20.0568 36.9317C20.0568 36.7477 19.6265 36.5015 19.2561 36.5015L16.0606 37.9141L16.2446 38.3443C17.3091 37.8802 18.4669 37.6699 19.6265 37.7301Z" fill="#007549"/>
<path d="M18.0276 40.378C18.2117 40.378 18.4578 39.9478 18.4578 39.7638C18.4578 39.3934 18.0276 39.1472 17.6595 39.1472L14.464 40.5621L14.648 40.9923C15.6925 40.4682 16.8655 40.255 18.0276 40.378Z" fill="#007549"/>
<path d="M16.9831 42.773C17.4133 42.773 17.5974 42.3428 17.4133 41.9747C17.4133 41.7906 16.9831 41.6066 16.615 41.6066L13.4195 42.8351L13.6035 43.4494C14.8321 42.8351 15.8765 42.651 16.9831 42.773Z" fill="#007549"/>
<path d="M16.1848 45.1702C16.615 44.9862 16.7991 44.74 16.615 44.3719C16.615 43.9417 16.1848 43.7577 15.8167 43.9417L12.6212 45.1702L12.8052 45.5383C13.893 45.178 15.0449 45.0525 16.1848 45.1702Z" fill="#007549"/>
<path d="M15.3865 47.3927C15.5705 47.2063 15.8167 46.7784 15.5706 46.408C15.5706 46.2239 15.2002 45.9778 14.7699 45.9778L11.7607 47.5767L11.9448 48.0069C13.2354 47.4525 14.2178 47.2684 15.3957 47.3927" fill="#007549"/>
<path d="M14.4018 49.9624C14.8321 49.9624 15.0161 49.5943 14.8321 49.1641C14.8321 48.9801 14.4018 48.7339 14.0337 48.9801L11.0222 50.579L11.2063 50.9471C12.2508 50.3926 13.4195 50.2086 14.4018 49.9624Z" fill="#007549"/>
<path d="M13.6035 52.7899C14.0337 52.7899 14.2178 52.3597 14.0337 51.9916C13.9368 51.8695 13.816 51.7684 13.6788 51.6945C13.5415 51.6205 13.3907 51.5752 13.2354 51.5613L10.2239 53.3443L10.408 53.7722C11.4525 53.2201 12.6212 52.9739 13.6035 52.7899Z" fill="#007549"/>
<path d="M26.6319 27.3497C26.7919 27.3409 26.9431 27.2733 27.0565 27.16C27.1698 27.0466 27.2373 26.8955 27.2462 26.7354C27.2462 26.3052 26.8159 26.1212 26.4455 26.1212L23.0659 26.7354V27.1656C24.4187 26.7354 25.5253 27.1656 26.6319 27.3497Z" fill="#007549"/>
<path d="M28.2285 25.3826C28.3886 25.3738 28.5397 25.3063 28.6531 25.1929C28.7664 25.0796 28.834 24.9284 28.8428 24.7684C28.6587 24.3382 28.4126 24.1541 28.0445 24.1541L24.6649 24.7684V25.1986C25.9555 24.9524 27.0621 24.9524 28.2285 25.3826Z" fill="#007549"/>
<path d="M30.0115 23.5399C30.4417 23.5399 30.6258 23.1097 30.6258 22.7416C30.6169 22.5815 30.5494 22.4304 30.4361 22.317C30.3227 22.2037 30.1716 22.1361 30.0115 22.1273L26.6319 22.7416V23.1097C27.9202 22.8635 28.967 23.2937 30.0115 23.5399Z" fill="#007549"/>
<path d="M31.4241 21.3267C31.8543 21.1427 32.0383 20.8965 32.0383 20.5284C32.0383 20.0982 31.6081 19.9141 31.24 19.9141L28.0445 20.8965V21.5131C29.273 20.8965 30.3175 21.2048 31.4241 21.3267Z" fill="#007549"/>
<path d="M27 18.5614C26.996 18.4707 26.9671 18.3828 26.9164 18.3075C26.8658 18.2321 26.7954 18.1721 26.713 18.1341C26.6305 18.0961 26.5392 18.0815 26.449 18.092C26.3588 18.1024 26.2733 18.1374 26.2017 18.1933C25.7715 18.1933 25.5851 18.5614 25.7715 18.9916L27 22.1871L27.4302 22.0031C26.9379 20.7746 27 19.668 27 18.5522" fill="#007549"/>
<path d="M25.217 19.9762C25.217 19.7922 24.7868 19.546 24.4187 19.546C24.2347 19.546 23.9885 19.9762 23.9885 20.3443L25.217 23.5399H25.6472C25.2404 22.3988 25.0934 21.1813 25.217 19.9762Z" fill="#007549"/>
<path d="M23.4364 21.7569C23.4306 21.6667 23.4005 21.5799 23.3491 21.5056C23.2977 21.4313 23.2271 21.3724 23.1448 21.3353C23.0624 21.2981 22.9715 21.2841 22.8819 21.2948C22.7922 21.3054 22.7071 21.3403 22.6357 21.3957C22.2055 21.3957 22.0215 21.7638 22.2055 22.194L23.816 26.0038H24.2462C23.5698 24.5291 23.5077 23.0544 23.4479 21.7638" fill="#007549"/>
<path d="M21.8374 23.5399C21.7686 23.3773 21.6589 23.2354 21.519 23.1278C21.3792 23.0201 21.2138 22.9505 21.0391 22.9256C20.6089 23.1096 20.4249 23.3558 20.4249 23.7239L22.0215 27.7178L22.4517 27.5337C21.5913 26.1833 21.7753 24.773 21.8374 23.5399Z" fill="#007549"/>
<path d="M20.2454 25.1365C20.2454 24.7086 19.8152 24.7086 19.4448 24.7086C19.3221 24.805 19.2206 24.9257 19.1466 25.063C19.0726 25.2003 19.0276 25.3515 19.0146 25.5069L20.7975 29.3167H21.2278C20.6135 27.9019 20.1212 26.556 20.2454 25.1365Z" fill="#007549"/>
<path d="M18.4049 27.3497C18.3045 27.2365 18.1817 27.1453 18.0443 27.082C17.9069 27.0186 17.7579 26.9844 17.6066 26.9816C17.5105 27.0132 17.4221 27.0647 17.3473 27.1328C17.2724 27.2009 17.2127 27.284 17.1721 27.3767C17.1315 27.4694 17.1109 27.5696 17.1117 27.6708C17.1124 27.7719 17.1344 27.8718 17.1764 27.9639L18.9594 31.7737L19.3896 31.5897C18.7753 30.115 18.3451 28.829 18.4049 27.3497Z" fill="#007549"/>
<path d="M16.7945 29.7469C16.7945 29.3765 16.3643 29.3765 15.9962 29.3765C15.784 29.6003 15.6354 29.8767 15.5659 30.1771L17.3466 33.987L17.7768 33.8029C17.1626 32.388 16.7324 31.0974 16.7945 29.7469Z" fill="#007549"/>
<path d="M15.3865 31.7738C15.3865 31.5897 14.9563 31.3436 14.5859 31.5897C14.4018 31.5897 14.2178 31.9578 14.4018 32.388L16.431 36.0138L16.8612 35.8298C16.1227 34.4172 15.5706 33.1265 15.3865 31.7738Z" fill="#007549"/>
<path d="M14.3397 33.9248C14.2684 33.7786 14.153 33.6585 14.0098 33.5813C13.8666 33.5041 13.7028 33.4738 13.5414 33.4946C13.1733 33.6787 12.9271 34.1089 13.1733 34.477L15.2002 38.1027L15.8167 37.9187C14.8965 36.5682 14.2799 35.3374 14.3397 33.9248Z" fill="#007549"/>
<path d="M12.8052 36.138C12.6212 35.9517 12.1909 35.7676 12.0046 35.9517C11.5767 36.138 11.5767 36.5682 11.8205 36.9363L14.2178 40.3159L14.5859 40.1319C13.7876 38.8412 13.0514 37.5506 12.8052 36.138Z" fill="#007549"/>
<path d="M11.8206 38.5951C11.6365 38.411 11.2063 38.227 11.0222 38.411C10.592 38.5951 10.408 39.0253 10.592 39.2093L12.9893 42.8351L13.4195 42.651C12.6212 41.2385 12.0046 39.9478 11.8206 38.5951Z" fill="#007549"/>
<path d="M10.8382 40.3781C10.6541 40.194 10.2239 39.9479 10.0399 40.194C9.60966 40.3781 9.60966 40.8083 9.85583 41.1764L12.4348 44.372L12.865 44.1879C11.8205 42.8973 11.0844 41.7286 10.8382 40.3781Z" fill="#007549"/>
<path d="M9.79371 42.3428C9.60966 41.9126 9.17944 41.9126 8.9954 42.1587C8.56518 42.3428 8.56518 42.773 8.81135 42.9571L11.6365 46.1526L12.0667 45.9686C10.9003 44.9241 10.3459 43.5115 9.79371 42.3428Z" fill="#007549"/>
<path d="M9.17945 44.372C9.06559 44.2826 8.92504 44.234 8.78029 44.234C8.63555 44.234 8.49499 44.2826 8.38114 44.372C7.95092 44.556 7.95092 44.9862 8.19479 45.1703L10.7761 48.3658L11.2063 48.1818C10.2239 46.8911 9.48543 45.7845 9.17945 44.372Z" fill="#007549"/>
<path d="M8.19479 47.1971C8.01074 46.7692 7.58052 46.7692 7.21242 47.0131C7.02837 47.1971 7.02837 47.6273 7.21242 47.9977L10.0399 51.0092L10.4701 50.6388C9.30138 49.5944 8.74923 48.2439 8.19479 47.1879" fill="#007549"/>
<path d="M7.39647 49.5943C7.28261 49.5049 7.14206 49.4564 6.99731 49.4564C6.85257 49.4564 6.71201 49.5049 6.59816 49.5943C6.41411 49.7784 6.16794 50.2086 6.41411 50.3926L9.43251 53.5882L9.86273 53.158C8.81825 52.0537 7.95782 50.9471 7.40337 49.5943" fill="#007549"/>
<path d="M6.78221 52.7899C6.35199 52.6058 5.9839 52.3597 5.79985 52.7899C5.71048 52.9037 5.6619 53.0443 5.6619 53.189C5.6619 53.3338 5.71048 53.4743 5.79985 53.5882L8.81135 56.5951L9.17945 56.1649C8.07285 55.0583 7.09049 54.138 6.78221 52.7853" fill="#007549"/>
<path d="M6.41411 56.1695C6.34987 56.1041 6.27325 56.0522 6.18872 56.0167C6.10419 55.9813 6.01344 55.963 5.92178 55.963C5.83012 55.963 5.73937 55.9813 5.65484 56.0167C5.57031 56.0522 5.49369 56.1041 5.42945 56.1695C5.34008 56.2834 5.2915 56.4239 5.2915 56.5687C5.2915 56.7134 5.34008 56.854 5.42945 56.9678L8.44095 59.9793L8.87117 59.6112C7.64264 58.6289 6.96626 57.214 6.41411 56.1603" fill="#007549"/>
<path d="M5.79985 59.9793C5.6158 59.7952 5.18558 59.7952 4.81518 59.9793C4.72581 60.0931 4.67724 60.2337 4.67724 60.3784C4.67724 60.5232 4.72581 60.6637 4.81518 60.7776L7.82208 63.7891L8.19018 63.6051C7.08589 62.3765 6.10123 61.3942 5.79524 59.9793" fill="#007549"/>
<path d="M5.42944 63.7891C5.2454 63.6051 4.81518 63.3589 4.63113 63.7891C4.44708 63.9732 4.26303 64.4034 4.63113 64.5874L7.64263 67.408L8.07285 67.224C6.90644 66.1174 5.98389 65.0729 5.42944 63.773" fill="#007549"/>
<path d="M5.42945 67.5989C5.00154 67.1687 4.63114 67.1687 4.44709 67.4148C4.26304 67.7829 4.26304 68.2132 4.44709 68.3995L7.64264 70.9785L8.07286 70.7944C6.72009 69.934 6.04601 68.6434 5.42945 67.5989Z" fill="#007549"/>
<path d="M5.18558 70.9785C4.75537 70.7944 4.38497 70.7944 4.20092 70.9785C4.01687 71.3489 4.01687 71.7791 4.38497 71.9632L8.01073 74.174L8.19478 73.7438C6.90644 73.0698 6.04601 71.9632 5.18558 70.9831" fill="#007549"/>
<path d="M5.42945 74.6043C5.26627 74.5322 5.08509 74.5112 4.90974 74.544C4.7344 74.5769 4.5731 74.6621 4.44709 74.7883C4.37938 74.9527 4.36074 75.1332 4.3934 75.3079C4.42606 75.4826 4.50863 75.6442 4.63114 75.773L8.44095 77.5537L8.625 77.1856C7.15031 76.4494 6.04602 75.8949 5.42945 74.6043Z" fill="#007549"/>
<path d="M5.79985 78.168C5.63616 78.0956 5.45437 78.0747 5.27854 78.108C5.1027 78.1413 4.94112 78.2272 4.81518 78.3543C4.74273 78.5176 4.72175 78.6991 4.75504 78.8746C4.78833 79.0501 4.87431 79.2113 5.00153 79.3367L8.81135 81.1196L8.9954 80.7492C7.58052 80.0752 6.46472 79.4586 5.79985 78.168Z" fill="#007549"/>
<path d="M6.23006 81.7937C6.06637 81.7214 5.88458 81.7005 5.70875 81.7337C5.53292 81.767 5.37134 81.8529 5.2454 81.98C5.2454 82.4079 5.2454 82.7783 5.67561 82.7783L9.66258 84.2024L9.84893 83.8343C8.43405 83.2799 7.08819 82.7277 6.22316 81.8052" fill="#007549"/>
<path d="M6.59816 84.6212C6.16794 84.4371 5.79985 84.6212 5.79985 85.0514C5.6158 85.2354 5.79985 85.6656 5.98389 85.8497L9.97776 87.2646L10.1618 86.8344C8.81135 86.2201 7.58052 85.6035 6.59816 84.6212Z" fill="#007549"/>
<path d="M7.21242 87.1932C6.78221 87.0092 6.59816 87.1932 6.41411 87.5613C6.23006 87.7454 6.41411 88.1756 6.59816 88.3596L10.5828 89.7837L10.7669 89.3535C9.43252 88.8037 8.19479 88.2469 7.21242 87.1932Z" fill="#007549"/>
<path d="M7.82208 89.4133C7.65881 89.3409 7.47732 89.3199 7.30182 89.3532C7.12631 89.3865 6.96512 89.4724 6.83972 89.5997C6.83972 90.0299 6.83972 90.398 7.02377 90.582L11.625 92.9793L12.0552 92.5491C10.4586 91.6288 8.73773 90.7661 7.81518 89.4133" fill="#007549"/>
<path d="M12.9893 55.8014C13.4195 55.6173 13.4195 55.1871 13.4195 54.819C13.2354 54.6327 12.8052 54.3888 12.4348 54.6327L8.81135 56.8459L8.9954 57.2761C10.286 56.2316 11.7561 56.0475 12.9893 55.8014Z" fill="#007549"/>
<path d="M12.4348 58.7508C12.6212 58.5667 12.865 58.1365 12.6212 57.9525C12.4348 57.5223 12.0046 57.5223 11.8206 57.7684L8.44095 60.3474L8.625 60.7178C9.85583 59.7976 11.0222 59.0591 12.4348 58.7508Z" fill="#007549"/>
<path d="M12.1932 62.1925C12.6235 62.0084 12.6235 61.5782 12.3773 61.3942C12.1932 60.964 11.763 60.964 11.579 61.2078L8.19708 63.7891L8.38343 64.1595C9.67178 63.2393 10.8405 62.4387 12.1932 62.1925Z" fill="#007549"/>
<path d="M11.8206 65.5675C12.2508 65.3834 12.2508 64.9532 12.0046 64.5828C11.8206 64.3988 11.3903 64.3988 11.0222 64.5828L8.01073 67.408L8.19478 67.7761C9.30138 66.6718 10.7255 66.1173 11.8206 65.5652" fill="#007549"/>
<path d="M11.6365 69.0184C12.0667 68.8344 12.0667 68.4041 11.8205 68.2178C11.6365 67.7876 11.2063 67.7876 11.0222 68.0337L7.82208 71.0406L8.2523 71.4709C9.23696 70.4264 10.4655 69.6879 11.6319 69.0138" fill="#007549"/>
<path d="M11.8206 71.9632C12.2508 71.7791 12.2508 71.3489 11.8206 70.9785C11.7067 70.8891 11.5661 70.8406 11.4214 70.8406C11.2767 70.8406 11.1361 70.8891 11.0222 70.9785L8.19479 74.1741L8.56519 74.6043C9.48543 73.3136 10.7761 72.5774 11.8206 71.9632Z" fill="#007549"/>
<path d="M12.0046 74.7883C12.1909 74.6043 12.1909 74.1741 12.0046 73.806C11.8907 73.7166 11.7502 73.668 11.6054 73.668C11.4607 73.668 11.3201 73.7166 11.2063 73.806L8.38113 77.0015L8.56518 77.4317C9.73159 76.1411 10.592 75.1587 12.0161 74.7883" fill="#007549"/>
<path d="M12.1932 77.9908C12.2826 77.877 12.3312 77.7364 12.3312 77.5917C12.3312 77.4469 12.2826 77.3064 12.1932 77.1925C12.0069 76.8244 11.579 77.0085 11.2086 77.1925L8.81135 80.5652L9.17945 80.7492C10.0399 79.5828 11.2063 78.7845 12.1909 77.9885" fill="#007549"/>
<path d="M12.8052 80.8113C12.9893 80.3811 12.9893 80.013 12.8052 79.829C12.375 79.6449 12.0046 79.6449 11.8206 80.013L9.60966 83.6388L10.0399 83.8228C10.7163 82.5322 11.8804 81.6096 12.8006 80.8113" fill="#007549"/>
<path d="M14.4018 87.1932C14.5859 86.763 14.5859 86.3949 14.2178 86.2109C14.1571 86.1594 14.0853 86.1227 14.008 86.1039C13.9306 86.0851 13.85 86.0846 13.7724 86.1025C13.6949 86.1204 13.6226 86.1561 13.5613 86.2069C13.5 86.2577 13.4515 86.322 13.4195 86.3949L11.2063 90.0207L11.6365 90.2047C12.4348 88.852 13.1733 87.8075 14.3972 87.1932" fill="#007549"/>
<path d="M15.8167 90.214C15.889 90.0503 15.91 89.8685 15.8767 89.6926C15.8434 89.5168 15.7575 89.3552 15.6304 89.2293C15.4672 89.1572 15.286 89.1362 15.1107 89.169C14.9353 89.2019 14.774 89.2871 14.648 89.4133L12.6212 93.5936L13.0514 93.7776C13.7876 92.2408 14.464 90.9502 15.8121 90.214" fill="#007549"/>
<path d="M13.6035 83.5767C13.6756 83.4135 13.6966 83.2323 13.6638 83.057C13.6309 82.8816 13.5458 82.7204 13.4195 82.5943C12.9893 82.408 12.6212 82.5943 12.6212 82.7784L10.408 86.9632L10.8382 87.1472C11.4525 85.7347 12.6212 84.566 13.5989 83.5836" fill="#007549"/>
<path d="M29.6411 18.7477C17.6595 30.5453 10.0399 44.7447 7.82669 60.1588C5.6158 75.773 9.05521 91.5644 17.6595 105.828C17.8436 106.196 18.2738 106.196 18.6419 106.012C18.7144 105.98 18.7784 105.931 18.8289 105.87C18.8794 105.809 18.915 105.736 18.9328 105.659C18.9507 105.582 18.9503 105.501 18.9317 105.424C18.9132 105.347 18.877 105.275 18.8259 105.214C10.408 91.2032 7.02837 75.7799 9.24156 60.352C11.4525 45.3543 18.635 31.0974 30.4417 19.7301C30.8719 19.546 30.8719 19.1158 30.4417 18.7477C30.328 18.657 30.1869 18.6076 30.0414 18.6076C29.896 18.6076 29.7548 18.657 29.6411 18.7477Z" fill="#007549"/>
<path d="M123.66 29.3765C123.5 29.3682 123.349 29.3008 123.235 29.1874C123.122 29.0739 123.054 28.9225 123.046 28.7622C123.046 28.3941 123.23 27.9639 123.66 28.148L127.04 28.5276V29.1418C125.749 28.7714 124.767 29.1418 123.66 29.3857" fill="#007549"/>
<path d="M125.073 31.3436C124.913 31.3348 124.762 31.2672 124.648 31.1539C124.535 31.0405 124.467 30.8894 124.459 30.7293C124.449 30.6462 124.458 30.562 124.485 30.4829C124.512 30.4038 124.557 30.332 124.616 30.2728C124.676 30.2136 124.747 30.1687 124.826 30.1414C124.906 30.114 124.99 30.105 125.073 30.1151L128.455 30.7293V31.3436C127.164 30.8536 126.12 31.1595 125.073 31.3436Z" fill="#007549"/>
<path d="M126.242 33.3727C126.082 33.3639 125.93 33.2963 125.817 33.183C125.704 33.0696 125.636 32.9185 125.627 32.7584C125.627 32.3282 126.058 32.1418 126.426 32.1418L129.805 32.9425L129.621 33.3727C128.331 32.8182 127.348 33.1886 126.242 33.3727Z" fill="#007549"/>
<path d="M127.654 35.5836C127.224 35.5836 127.04 35.3995 127.04 34.9693C127.224 34.5391 127.47 34.355 127.838 34.355L131.218 35.3374L131.034 35.7676C129.867 35.3995 128.639 35.5238 127.654 35.5836Z" fill="#007549"/>
<path d="M128.885 37.7301C128.801 37.7106 128.723 37.6735 128.655 37.6214C128.587 37.5693 128.531 37.5034 128.49 37.4279C128.449 37.3524 128.425 37.2691 128.419 37.1836C128.413 37.0981 128.425 37.0122 128.455 36.9317C128.455 36.7477 128.885 36.5015 129.253 36.5015L132.449 37.9141L132.265 38.3443C131.199 37.8855 130.044 37.6755 128.885 37.7301Z" fill="#007549"/>
<path d="M130.482 40.378C130.298 40.378 129.867 39.9478 130.051 39.7638C130.051 39.3934 130.482 39.1472 130.85 39.1472L134.045 40.5621L133.861 40.9923C132.633 40.4379 131.588 40.2538 130.482 40.378Z" fill="#007549"/>
<path d="M131.464 42.773C131.034 42.773 130.85 42.3428 131.034 41.9747C131.034 41.7906 131.464 41.6066 131.834 41.6066L135.03 42.8351L134.844 43.4494C133.814 42.8805 132.633 42.6442 131.464 42.773Z" fill="#007549"/>
<path d="M132.265 45.1702C131.834 44.9862 131.648 44.74 131.834 44.3719C131.834 43.9417 132.265 43.7577 132.633 43.9417L135.828 45.1702L135.644 45.5383C134.557 45.175 133.404 45.0495 132.265 45.1702Z" fill="#007549"/>
<path d="M133.063 47.3927C132.94 47.2638 132.858 47.1023 132.825 46.9276C132.792 46.7528 132.811 46.5724 132.879 46.408C132.879 46.2239 133.247 45.9778 133.677 45.9778L136.689 47.5767L136.505 48.0069C135.437 47.4751 134.239 47.2619 133.054 47.3927" fill="#007549"/>
<path d="M133.861 49.9624C133.677 49.9624 133.431 49.5943 133.677 49.1641C133.677 48.9801 134.107 48.7339 134.475 48.9801L137.487 50.579L137.303 50.9471C136.208 50.4496 135.045 50.1177 133.852 49.9624" fill="#007549"/>
<path d="M135.03 52.974C134.6 52.974 134.291 52.3597 134.475 51.9295C134.572 51.8074 134.693 51.7063 134.83 51.6324C134.968 51.5584 135.118 51.5131 135.274 51.4993L138.285 53.2822L138.101 53.7125C137.057 53.2201 136.012 53.2201 135.03 52.974Z" fill="#007549"/>
<path d="M121.88 27.3497C121.719 27.3414 121.567 27.2741 121.454 27.1607C121.34 27.0473 121.272 26.8958 121.263 26.7354C121.263 26.3052 121.693 26.1212 122.064 26.1212L125.443 26.7354V27.1656C124.028 26.7354 122.984 27.1656 121.88 27.3497Z" fill="#007549"/>
<path d="M120.281 25.3826C120.121 25.3738 119.969 25.3063 119.856 25.1929C119.743 25.0796 119.675 24.9284 119.666 24.7684C119.666 24.3382 120.097 24.1541 120.465 24.1541L123.844 24.7684V25.1986C122.432 24.7684 121.325 25.1365 120.281 25.3826Z" fill="#007549"/>
<path d="M118.438 23.5399C118.008 23.5399 117.64 23.1097 117.824 22.7416C117.832 22.5815 117.9 22.4304 118.013 22.317C118.127 22.2037 118.278 22.1361 118.438 22.1273L121.817 22.7416V23.1097C120.589 22.8635 119.544 23.2937 118.438 23.5399Z" fill="#007549"/>
<path d="M117.085 21.3267C116.655 21.1427 116.471 20.8965 116.471 20.5284C116.471 20.0982 116.901 19.9141 117.269 19.9141L120.465 20.8965V21.5131C119.174 20.8965 118.13 21.2048 117.085 21.3267Z" fill="#007549"/>
<path d="M120.343 18.9318C120.219 18.5614 120.589 18.2554 121.019 18.3773C121.387 18.2554 121.693 18.6235 121.571 19.0537L121.141 22.4333L120.711 22.316C120.957 21.0874 120.589 20.043 120.343 18.9364" fill="#007549"/>
<path d="M123.292 19.9762C123.292 19.7922 123.722 19.546 124.09 19.546C124.275 19.546 124.521 19.9762 124.521 20.3443L123.292 23.5399H122.853C123.229 22.3919 123.376 21.1809 123.283 19.9762" fill="#007549"/>
<path d="M125.073 21.7569C125.077 21.6662 125.107 21.5784 125.158 21.5032C125.208 21.428 125.279 21.3681 125.362 21.3302C125.444 21.2922 125.535 21.2776 125.626 21.288C125.716 21.2983 125.802 21.3332 125.873 21.3888C126.304 21.3888 126.304 21.7569 126.304 22.1871L124.693 25.9969H124.263C124.939 24.5222 124.939 22.9877 125.061 21.7569" fill="#007549"/>
<path d="M126.672 23.5399C126.856 23.1096 127.102 22.9256 127.47 22.9256C127.9 23.1096 128.084 23.3558 128.084 23.7239L126.488 27.7178L126.058 27.5337C126.856 26.1212 126.672 24.773 126.672 23.5399Z" fill="#007549"/>
<path d="M128.268 25.1365C128.268 24.7086 128.699 24.7086 129.069 24.7086C129.192 24.805 129.293 24.9257 129.367 25.063C129.441 25.2003 129.486 25.3515 129.499 25.5069L127.716 29.3167H127.286C127.9 27.9019 128.331 26.556 128.268 25.1365Z" fill="#007549"/>
<path d="M130.051 27.3497C130.152 27.2365 130.275 27.1453 130.412 27.082C130.549 27.0186 130.698 26.9844 130.85 26.9816C130.946 27.0132 131.034 27.0647 131.109 27.1328C131.184 27.2009 131.244 27.284 131.284 27.3767C131.325 27.4694 131.345 27.5696 131.345 27.6708C131.344 27.7719 131.322 27.8718 131.28 27.9639C131.122 28.1516 130.906 28.2811 130.666 28.332L129.437 31.7116L129.007 31.5276L130.235 28.148C130.111 28.0615 130.023 27.9319 129.989 27.7843C129.955 27.6368 129.977 27.4818 130.051 27.3497Z" fill="#007549"/>
<path d="M131.648 29.7469C131.648 29.3765 132.078 29.3765 132.449 29.3765C132.661 29.6003 132.809 29.8767 132.879 30.1771L131.096 33.987L130.482 33.8029C131.218 32.388 131.71 31.0974 131.648 29.7469Z" fill="#007549"/>
<path d="M133.063 31.7738C133.063 31.5897 133.493 31.3436 133.861 31.5897C134.045 31.5897 134.229 31.9578 134.045 32.388L132.018 36.0138L131.648 35.7677C132.324 34.4172 132.879 33.1265 133.063 31.7738Z" fill="#007549"/>
<path d="M134.475 34.355C134.66 33.9869 135.09 33.9869 135.274 33.9869C135.37 34.0186 135.458 34.0701 135.533 34.1382C135.608 34.2063 135.668 34.2894 135.708 34.3821C135.749 34.4747 135.769 34.5749 135.769 34.6761C135.768 34.7773 135.746 34.8772 135.704 34.9693L133.677 38.5951L133.063 38.411C133.923 36.9984 134.538 35.7676 134.475 34.355Z" fill="#007549"/>
<path d="M135.644 36.138C135.828 35.9517 136.258 35.7676 136.442 35.9517C136.873 36.138 136.873 36.5682 136.627 36.9363L134.229 40.3159L133.861 40.1319C134.722 38.8412 135.46 37.5506 135.644 36.138Z" fill="#007549"/>
<path d="M136.689 38.5951C136.873 38.411 137.303 38.227 137.487 38.411C137.855 38.5951 137.855 39.0253 137.855 39.2093L135.46 42.8351L135.03 42.651C135.828 41.2385 136.442 39.9478 136.689 38.5951Z" fill="#007549"/>
<path d="M137.671 40.3781C137.855 40.194 138.285 39.9479 138.469 40.194C138.9 40.3781 138.9 40.8083 138.653 41.1764L136.074 44.372L135.644 44.1879C136.627 42.8973 137.425 41.7286 137.671 40.3781Z" fill="#007549"/>
<path d="M138.653 42.3428C138.84 41.9126 139.27 41.9126 139.454 42.1587C139.527 42.1911 139.591 42.2398 139.641 42.3011C139.692 42.3625 139.727 42.4346 139.745 42.512C139.763 42.5894 139.762 42.6699 139.744 42.7471C139.725 42.8244 139.689 42.8962 139.638 42.9571L136.811 46.1526L136.38 45.9686C137.549 44.9241 138.163 43.5115 138.653 42.3428Z" fill="#007549"/>
<path d="M139.27 44.372C139.384 44.2826 139.524 44.234 139.669 44.234C139.814 44.234 139.954 44.2826 140.068 44.372C140.498 44.556 140.498 44.9862 140.252 45.1703L137.671 48.3658L137.241 48.1818C138.223 46.8911 139.024 45.7845 139.27 44.372Z" fill="#007549"/>
<path d="M140.252 47.1971C140.436 46.7692 140.867 46.7692 141.235 47.0131C141.419 47.1971 141.419 47.6273 141.235 47.9977L138.41 51.0092L137.979 50.6388C139.208 49.5944 139.76 48.2439 140.252 47.1879" fill="#007549"/>
<path d="M141.051 49.5943C141.164 49.5049 141.305 49.4564 141.45 49.4564C141.595 49.4564 141.735 49.5049 141.849 49.5943C142.035 49.7784 142.279 50.2086 142.035 50.3926L139.024 53.5882L138.594 53.158C139.7 52.0537 140.558 50.9471 141.051 49.5943Z" fill="#007549"/>
<path d="M141.665 52.7899C141.724 52.7168 141.8 52.6578 141.885 52.6174C141.97 52.5769 142.063 52.5559 142.157 52.5559C142.251 52.5559 142.345 52.5769 142.43 52.6174C142.515 52.6578 142.59 52.7168 142.65 52.7899C142.739 52.9037 142.787 53.0443 142.787 53.189C142.787 53.3338 142.739 53.4743 142.65 53.5882L139.647 56.5951L139.279 56.1649C140.446 55.0583 141.368 54.138 141.674 52.7853" fill="#007549"/>
<path d="M142.095 56.1695C142.159 56.1041 142.236 56.0522 142.32 56.0167C142.405 55.9813 142.496 55.963 142.587 55.963C142.679 55.963 142.77 55.9813 142.854 56.0167C142.939 56.0522 143.016 56.1041 143.08 56.1695C143.169 56.2834 143.218 56.4239 143.218 56.5687C143.218 56.7134 143.169 56.854 143.08 56.9678L140.068 59.9793L139.7 59.6112C140.867 58.6289 141.481 57.214 142.095 56.1603" fill="#007549"/>
<path d="M142.65 59.9793C142.834 59.7952 143.264 59.7952 143.632 59.9793C143.721 60.0931 143.77 60.2337 143.77 60.3784C143.77 60.5232 143.721 60.6637 143.632 60.7776L140.62 63.7891L140.19 63.6051C141.419 62.3765 142.341 61.3942 142.65 59.9793Z" fill="#007549"/>
<path d="M143.08 63.7891C143.264 63.6051 143.694 63.3589 143.878 63.7891C144.062 63.9732 144.308 64.4034 143.878 64.5874L140.867 67.408L140.436 67.224C141.605 66.1174 142.525 65.0729 143.08 63.773" fill="#007549"/>
<path d="M143.08 67.5989C143.448 67.1687 143.878 67.1687 144.062 67.4148C144.246 67.7829 144.246 68.2132 144.062 68.3995L140.867 70.9785L140.436 70.7944C141.727 69.934 142.525 68.5214 143.08 67.5989Z" fill="#007549"/>
<path d="M143.264 70.9785C143.694 70.7944 144.062 70.7944 144.246 70.9785C144.314 71.1429 144.333 71.3233 144.3 71.4981C144.267 71.6728 144.185 71.8343 144.062 71.9632L140.436 74.174L140.006 73.7438C141.419 73.1296 142.403 71.9632 143.264 70.9831" fill="#007549"/>
<path d="M143.08 74.6043C143.235 74.5096 143.42 74.478 143.598 74.5162C143.776 74.5543 143.932 74.6593 144.034 74.8093C144.137 74.9593 144.178 75.143 144.149 75.3223C144.12 75.5017 144.023 75.663 143.878 75.773L140.068 77.5536L139.884 77.1856C141.297 76.4494 142.415 75.8949 143.08 74.6043Z" fill="#007549"/>
<path d="M142.65 78.1679C142.813 78.0955 142.994 78.0745 143.17 78.1078C143.345 78.1411 143.507 78.2271 143.632 78.3543C143.632 78.7845 143.632 79.1526 143.448 79.3367L139.647 81.1196L139.279 80.7492C140.814 80.0752 141.982 79.4586 142.659 78.1679" fill="#007549"/>
<path d="M142.279 81.7937C142.443 81.7214 142.625 81.7005 142.8 81.7337C142.976 81.767 143.138 81.8529 143.264 81.98C143.264 82.4079 143.264 82.7783 142.834 82.7783L138.84 84.2024L138.653 83.8343C140.068 83.2799 141.359 82.7277 142.279 81.8052" fill="#007549"/>
<path d="M141.849 84.6212C142.279 84.4371 142.65 84.6212 142.65 85.0514C142.834 85.2354 142.65 85.6656 142.463 85.8497L138.469 87.2646L138.285 86.8344C139.638 86.2201 140.867 85.6035 141.849 84.6212Z" fill="#007549"/>
<path d="M141.297 87.1932C141.481 87.0092 141.911 87.1932 142.095 87.5613C142.279 87.7454 142.095 88.1756 141.911 88.3596L137.917 89.7745L137.733 89.3443C139.024 88.7899 140.314 88.2377 141.297 87.1932Z" fill="#007549"/>
<path d="M140.683 89.4133C141.113 89.2293 141.481 89.4133 141.481 89.5997C141.665 90.0299 141.665 90.398 141.481 90.5821L136.88 92.9793L136.449 92.5491C138.046 91.6288 139.707 90.7661 140.689 89.4133" fill="#007549"/>
<path d="M135.46 55.8014C135.03 55.6173 135.03 55.1871 135.03 54.819C135.214 54.6327 135.644 54.3888 136.012 54.6327L139.647 56.8459L139.463 57.2761C138.232 56.2316 136.758 56.0475 135.469 55.8014" fill="#007549"/>
<path d="M136.074 58.7508C135.888 58.5667 135.644 58.1365 135.888 57.9525C136.074 57.5223 136.505 57.5223 136.689 57.7684L140.068 60.3474L139.884 60.7178C138.594 59.7976 137.425 59.0591 136.074 58.7508Z" fill="#007549"/>
<path d="M136.258 62.1925C135.828 62.0084 135.828 61.5782 136.074 61.3942C136.258 60.964 136.689 60.964 136.873 61.2078L140.252 63.7891L140.068 64.1595C138.9 63.1749 137.425 62.6825 136.258 62.1925Z" fill="#007549"/>
<path d="M136.689 65.5675C136.258 65.3834 136.258 64.9532 136.505 64.5828C136.689 64.3988 137.119 64.3988 137.487 64.5828C137.558 64.6676 137.611 64.7661 137.643 64.8721C137.674 64.9781 137.684 65.0895 137.671 65.1994L140.498 67.408L140.314 67.7761L137.303 65.5675C137.057 65.7515 136.873 65.7515 136.689 65.5675Z" fill="#007549"/>
<path d="M136.689 69.0184C136.599 68.9042 136.55 68.7632 136.55 68.6181C136.55 68.473 136.599 68.332 136.689 68.2178C136.873 67.7876 137.303 67.7876 137.487 68.0337L140.683 71.0452L140.252 71.4133C139.146 70.3689 138.039 69.5084 136.689 69.0184Z" fill="#007549"/>
<path d="M136.689 71.9632C136.258 71.7791 136.258 71.3489 136.689 70.9785C136.803 70.8891 136.943 70.8406 137.088 70.8406C137.233 70.8406 137.373 70.8891 137.487 70.9785L140.314 74.1741L139.877 74.6043C139.017 73.3136 137.664 72.5774 136.682 71.9632" fill="#007549"/>
<path d="M136.505 74.7883C136.318 74.6043 136.318 74.1741 136.505 73.806C136.618 73.7166 136.759 73.668 136.904 73.668C137.049 73.668 137.189 73.7166 137.303 73.806L140.128 77.0015L139.944 77.4317C138.778 76.1411 137.855 75.1587 136.505 74.7883Z" fill="#007549"/>
<path d="M136.258 77.9908C136.169 77.877 136.12 77.7364 136.12 77.5917C136.12 77.4469 136.169 77.3064 136.258 77.1925C136.442 76.8244 136.873 77.0085 137.057 77.1925L139.647 80.5652L139.279 80.7492C138.479 79.5828 137.312 78.7845 136.268 77.9885" fill="#007549"/>
<path d="M135.644 80.8113C135.46 80.3811 135.46 80.013 135.644 79.829C136.012 79.6449 136.442 79.6449 136.627 80.013L138.84 83.6388L138.41 83.8228C137.795 82.5322 136.627 81.6096 135.649 80.8113" fill="#007549"/>
<path d="M134.045 87.1933C133.861 86.7631 133.861 86.395 134.229 86.2109C134.29 86.1594 134.362 86.1228 134.44 86.104C134.517 86.0852 134.598 86.0847 134.676 86.1025C134.753 86.1204 134.826 86.1561 134.887 86.2069C134.949 86.2576 134.998 86.322 135.03 86.395L137.241 90.0207L136.811 90.2048C136.196 88.9141 135.03 88.0537 134.05 87.1933" fill="#007549"/>
<path d="M132.695 90.2139C132.642 90.1374 132.605 90.0512 132.586 89.9603C132.567 89.8694 132.566 89.7756 132.583 89.6843C132.6 89.593 132.634 89.5059 132.685 89.428C132.736 89.3501 132.801 89.283 132.878 89.2304C132.954 89.1779 133.04 89.1409 133.131 89.1216C133.222 89.1024 133.316 89.1012 133.407 89.1182C133.499 89.1352 133.586 89.17 133.664 89.2206C133.741 89.2713 133.809 89.3367 133.861 89.4133L135.888 93.5935L135.46 93.7776C134.66 92.2408 134.045 90.9501 132.699 90.2139" fill="#007549"/>
<path d="M134.844 83.5767C134.66 83.1465 134.66 82.7784 135.03 82.5943C135.214 82.408 135.644 82.5943 135.828 82.7784L138.037 86.9632L137.669 87.1472C137.054 85.7347 135.828 84.566 134.841 83.5836" fill="#007549"/>
<path d="M118.868 18.7477C130.85 30.5452 138.469 44.7446 140.683 60.1587C142.893 75.773 139.454 91.5644 130.85 105.828C130.666 106.196 130.051 106.196 129.867 106.012C129.437 105.828 129.437 105.398 129.683 105.214C138.101 91.2032 141.481 75.7799 139.27 60.352C137.057 45.3589 129.867 31.102 118.07 19.7346C117.64 19.5506 117.64 19.1204 118.07 18.7523C118.183 18.6617 118.324 18.6124 118.469 18.6124C118.614 18.6124 118.755 18.6617 118.868 18.7523" fill="#007549"/>
<path d="M73.9463 20.0384C60.6252 19.9848 47.8279 25.2229 38.3673 34.6012C28.9049 44.0039 23.6802 56.4778 23.6802 69.6879C23.6802 97.0353 46.2262 119.28 73.8865 119.34C101.6 119.34 124.153 97.0951 124.153 69.6879V69.6281C124.153 42.283 101.662 20.0384 73.9463 20.0384ZM73.9463 120.755C45.4348 120.755 22.2676 97.8336 22.2055 69.681C22.1895 62.9566 23.5188 56.2969 26.115 50.0939C28.7111 43.8908 32.5219 38.2697 37.3229 33.5614C47.0434 23.9166 60.1931 18.5221 73.8865 18.5614C102.398 18.5614 125.565 41.4824 125.627 69.635V69.6948C125.627 97.8405 102.46 120.768 73.9463 120.768" fill="#007549"/>
<path d="M49.3068 121.242H53.0544C32.4686 112.824 17.9057 92.6066 17.8551 69.0713C17.8436 61.671 19.2904 54.3409 22.1128 47.5C24.9352 40.659 29.0779 34.4412 34.3043 29.2018C39.5306 23.9625 45.738 19.8043 52.572 16.9648C59.4059 14.1254 66.7323 12.6603 74.1327 12.6534C105.225 12.6534 130.482 37.9187 130.482 69.0184V69.0782C130.459 80.2713 127.112 91.2054 120.865 100.493C114.617 109.78 105.752 117.002 95.3926 121.242H99.1426C108.977 116.507 117.278 109.096 123.092 99.8593C128.907 90.6223 132.001 79.9333 132.018 69.0184V68.9563C132.018 37.0629 106.021 11.1327 74.1327 11.1327C42.2393 11.1281 16.2446 37.1204 16.3068 69.0184C16.3377 79.9461 19.4507 90.6434 25.2881 99.8814C31.1255 109.119 39.4505 116.523 49.3068 121.242Z" fill="#C9AB5C"/>
<path d="M132.449 98.6319L129.755 90.398C124.9 103.548 115.192 114.554 102.902 121.307V135.012H101.427V137.469C112.07 133.263 121.578 126.619 129.185 118.07C136.793 109.521 142.288 99.3063 145.229 88.2469L132.449 98.6319Z" fill="#C9AB5C"/>
<path d="M45.5521 135.011V121.307H45.6764C33.3244 114.732 23.4317 104.1 18.5751 90.9501L16.0008 98.6319L3.22086 88.1848C6.1612 99.2475 11.6573 109.465 19.267 118.016C26.8767 126.568 36.3873 133.213 47.0337 137.418V134.949H45.5521V135.011Z" fill="#C9AB5C"/>
<path d="M45.8029 134.765H102.644V121.553H45.8029V134.765ZM103.199 135.255H45.3221V121.061H103.199V135.255Z" fill="#C9AB5C"/>
<path d="M74.2546 123.826C73.4037 123.826 72.5719 124.078 71.8645 124.551C71.157 125.024 70.6056 125.696 70.2799 126.482C69.9543 127.268 69.8691 128.133 70.0351 128.967C70.2011 129.802 70.6109 130.568 71.2125 131.17C71.8142 131.772 72.5808 132.182 73.4153 132.348C74.2498 132.514 75.1148 132.428 75.901 132.103C76.6871 131.777 77.359 131.226 77.8317 130.518C78.3044 129.811 78.5567 128.979 78.5567 128.128C78.5604 127.562 78.4516 127.001 78.2367 126.477C78.0218 125.954 77.7051 125.478 77.3049 125.078C76.9046 124.678 76.4289 124.361 75.9053 124.146C75.3817 123.931 74.8206 123.822 74.2546 123.826ZM74.2546 133.107C73.2699 133.107 72.3074 132.815 71.4887 132.268C70.67 131.721 70.0319 130.943 69.655 130.033C69.2782 129.124 69.1796 128.123 69.3717 127.157C69.5638 126.191 70.038 125.304 70.7343 124.608C71.4305 123.911 72.3176 123.437 73.2833 123.245C74.2491 123.053 75.2501 123.152 76.1598 123.529C77.0695 123.905 77.847 124.543 78.3941 125.362C78.9411 126.181 79.2331 127.143 79.2331 128.128C79.2283 129.447 78.7022 130.71 77.7696 131.643C76.837 132.576 75.5735 133.102 74.2546 133.107Z" fill="#9D1531"/>
<path d="M88.8175 123.826C87.9666 123.826 87.1348 124.078 86.4273 124.551C85.7199 125.024 85.1684 125.696 84.8428 126.482C84.5172 127.268 84.432 128.133 84.598 128.967C84.764 129.802 85.1737 130.568 85.7754 131.17C86.3771 131.772 87.1436 132.182 87.9782 132.348C88.8127 132.514 89.6777 132.428 90.4638 132.103C91.25 131.777 91.9219 131.226 92.3946 130.518C92.8673 129.811 93.1196 128.979 93.1196 128.128C93.1233 127.562 93.0145 127.001 92.7996 126.477C92.5847 125.954 92.268 125.478 91.8677 125.078C91.4675 124.678 90.9918 124.361 90.4682 124.146C89.9446 123.931 89.3835 123.822 88.8175 123.826ZM88.8175 133.107C87.8328 133.107 86.8703 132.815 86.0516 132.268C85.2328 131.721 84.5947 130.943 84.2179 130.033C83.8411 129.124 83.7425 128.123 83.9346 127.157C84.1267 126.191 84.6009 125.304 85.2971 124.608C85.9934 123.911 86.8805 123.437 87.8462 123.245C88.812 123.053 89.813 123.152 90.7227 123.529C91.6324 123.905 92.4099 124.543 92.957 125.362C93.504 126.181 93.796 127.143 93.796 128.128C93.7912 129.447 93.2651 130.71 92.3325 131.643C91.3999 132.576 90.1364 133.102 88.8175 133.107Z" fill="#9D1531"/>
<path d="M81.5061 123.826C80.6552 123.826 79.8235 124.078 79.116 124.551C78.4085 125.024 77.8571 125.696 77.5315 126.482C77.2058 127.268 77.1206 128.133 77.2866 128.967C77.4526 129.802 77.8624 130.568 78.4641 131.17C79.0657 131.772 79.8323 132.182 80.6668 132.348C81.5014 132.514 82.3664 132.428 83.1525 132.103C83.9386 131.777 84.6105 131.226 85.0832 130.518C85.556 129.811 85.8083 128.979 85.8083 128.128C85.8119 127.562 85.7032 127.001 85.4883 126.477C85.2734 125.954 84.9566 125.478 84.5564 125.078C84.1562 124.678 83.6804 124.361 83.1568 124.146C82.6332 123.931 82.0721 123.822 81.5061 123.826ZM81.5061 133.107C80.5214 133.107 79.5586 132.815 78.7396 132.269C77.9206 131.722 77.2821 130.945 76.9049 130.035C76.5278 129.125 76.4288 128.124 76.6207 127.158C76.8125 126.192 77.2865 125.305 77.9827 124.609C78.6788 123.912 79.5659 123.438 80.5317 123.245C81.4975 123.053 82.4987 123.152 83.4085 123.528C84.3183 123.905 85.096 124.543 85.6432 125.362C86.1903 126.181 86.4824 127.143 86.4824 128.128C86.4904 128.784 86.3672 129.435 86.12 130.042C85.8727 130.65 85.5065 131.202 85.0429 131.665C84.5792 132.129 84.0275 132.496 83.4201 132.743C82.8127 132.991 82.162 133.114 81.5061 133.107Z" fill="#9D1531"/>
<path d="M66.9479 123.826C66.0969 123.825 65.2649 124.077 64.5571 124.55C63.8493 125.022 63.2975 125.694 62.9715 126.48C62.6456 127.266 62.5601 128.131 62.7258 128.966C62.8915 129.801 63.3011 130.567 63.9027 131.169C64.5042 131.771 65.2708 132.181 66.1054 132.347C66.94 132.514 67.8051 132.429 68.5914 132.103C69.3776 131.777 70.0497 131.226 70.5225 130.518C70.9953 129.811 71.2477 128.979 71.2477 128.128C71.2514 127.562 71.1427 127.001 70.9279 126.478C70.7131 125.954 70.3966 125.479 69.9966 125.079C69.5966 124.678 69.1212 124.362 68.5978 124.147C68.0745 123.932 67.5136 123.823 66.9479 123.826ZM66.9479 133.107C65.9631 133.107 65.0003 132.815 64.1813 132.269C63.3623 131.722 62.7238 130.945 62.3467 130.035C61.9695 129.125 61.8706 128.124 62.0624 127.158C62.2542 126.192 62.7282 125.305 63.4244 124.609C64.1206 123.912 65.0076 123.438 65.9734 123.245C66.9392 123.053 67.9404 123.152 68.8502 123.528C69.7601 123.905 70.5377 124.543 71.0849 125.362C71.632 126.181 71.9241 127.143 71.9241 128.128C71.9321 128.784 71.8089 129.435 71.5617 130.042C71.3145 130.65 70.9483 131.202 70.4846 131.665C70.0209 132.129 69.4692 132.496 68.8618 132.743C68.2544 132.991 67.6037 133.114 66.9479 133.107Z" fill="#9D1531"/>
<path d="M59.6917 123.826C58.8407 123.825 58.0087 124.077 57.3009 124.55C56.5932 125.022 56.0414 125.694 55.7154 126.48C55.3894 127.266 55.3039 128.131 55.4697 128.966C55.6354 129.801 56.045 130.567 56.6465 131.169C57.2481 131.771 58.0147 132.181 58.8493 132.347C59.6839 132.514 60.549 132.429 61.3352 132.103C62.1215 131.777 62.7935 131.226 63.2664 130.518C63.7392 129.811 63.9916 128.979 63.9916 128.128C63.9952 127.562 63.8865 127.001 63.6718 126.478C63.457 125.954 63.1405 125.479 62.7405 125.079C62.3405 124.678 61.8651 124.362 61.3417 124.147C60.8184 123.932 60.2575 123.823 59.6917 123.826ZM59.6917 133.107C58.707 133.107 57.7442 132.815 56.9252 132.269C56.1062 131.722 55.4677 130.945 55.0905 130.035C54.7134 129.125 54.6144 128.124 54.8063 127.158C54.9981 126.192 55.4721 125.305 56.1683 124.609C56.8644 123.912 57.7515 123.438 58.7173 123.245C59.6831 123.053 60.6842 123.152 61.5941 123.528C62.5039 123.905 63.2816 124.543 63.8288 125.362C64.3759 126.181 64.6679 127.143 64.6679 128.128C64.6625 129.446 64.1365 130.709 63.2046 131.642C62.2726 132.574 61.01 133.101 59.6917 133.107Z" fill="#9D1531"/>
<path d="M52.3781 123.826C51.5272 123.826 50.6954 124.078 49.9879 124.551C49.2804 125.024 48.729 125.696 48.4034 126.482C48.0778 127.268 47.9926 128.133 48.1586 128.967C48.3246 129.802 48.7343 130.568 49.336 131.17C49.9377 131.772 50.7042 132.182 51.5388 132.348C52.3733 132.514 53.2383 132.428 54.0244 132.103C54.8105 131.777 55.4824 131.226 55.9552 130.518C56.4279 129.811 56.6802 128.979 56.6802 128.128C56.6839 127.562 56.5751 127.001 56.3602 126.477C56.1453 125.954 55.8285 125.478 55.4283 125.078C55.0281 124.678 54.5524 124.361 54.0288 124.146C53.5051 123.931 52.9441 123.822 52.3781 123.826ZM52.3781 133.107C51.3934 133.107 50.4309 132.815 49.6121 132.268C48.7934 131.721 48.1553 130.943 47.7785 130.033C47.4017 129.124 47.3031 128.123 47.4952 127.157C47.6873 126.191 48.1615 125.304 48.8577 124.608C49.554 123.911 50.4411 123.437 51.4068 123.245C52.3725 123.053 53.3736 123.152 54.2833 123.529C55.193 123.905 55.9705 124.543 56.5176 125.362C57.0646 126.181 57.3566 127.143 57.3566 128.128C57.3517 129.447 56.8257 130.71 55.8931 131.643C54.9604 132.576 53.697 133.102 52.3781 133.107Z" fill="#9D1531"/>
<path d="M96.1311 123.826C95.2802 123.826 94.4485 124.078 93.741 124.551C93.0335 125.024 92.4821 125.696 92.1565 126.482C91.8308 127.268 91.7456 128.133 91.9116 128.967C92.0776 129.802 92.4874 130.568 93.0891 131.17C93.6907 131.772 94.4573 132.182 95.2918 132.348C96.1264 132.514 96.9914 132.428 97.7775 132.103C98.5636 131.777 99.2355 131.226 99.7082 130.518C100.181 129.811 100.433 128.979 100.433 128.128C100.42 126.991 99.9619 125.905 99.158 125.101C98.3542 124.297 97.2679 123.84 96.1311 123.826ZM96.1311 133.107C95.1464 133.107 94.1836 132.815 93.3646 132.269C92.5456 131.722 91.9071 130.945 91.5299 130.035C91.1528 129.125 91.0538 128.124 91.2457 127.158C91.4375 126.192 91.9115 125.305 92.6077 124.609C93.3038 123.912 94.1909 123.438 95.1567 123.245C96.1225 123.053 97.1237 123.152 98.0335 123.528C98.9433 123.905 99.721 124.543 100.268 125.362C100.815 126.181 101.107 127.143 101.107 128.128C101.102 129.446 100.576 130.709 99.644 131.642C98.712 132.574 97.4494 133.101 96.1311 133.107Z" fill="#9D1531"/>
<path d="M113.706 88.9831C113.657 88.7619 113.636 88.5355 113.643 88.3091C113.643 88.125 113.584 88.0008 113.584 87.8789C113.506 87.7485 113.463 87.6003 113.459 87.4486C113.472 87.242 113.452 87.0346 113.4 86.8344C113.337 86.6503 113.213 86.6503 113.153 86.5882C113.094 86.5261 113.029 86.5261 112.969 86.464C112.969 86.4042 112.907 86.2799 112.907 86.2201C112.845 86.158 112.783 86.158 112.783 86.0959V85.8497C112.783 85.8174 112.77 85.7864 112.747 85.7635C112.724 85.7406 112.693 85.7278 112.661 85.7278C112.629 85.7278 112.598 85.7406 112.575 85.7635C112.552 85.7864 112.539 85.8174 112.539 85.8497C112.539 85.9118 112.477 86.0338 112.415 86.0338C112.343 86.083 112.256 86.105 112.169 86.0959C112.109 86.0959 112.047 86.158 112.109 86.2201C112.109 86.2799 112.231 86.342 112.293 86.4042C112.307 86.4151 112.318 86.4291 112.326 86.4451C112.333 86.461 112.337 86.4785 112.337 86.4962C112.337 86.5139 112.333 86.5314 112.326 86.5473C112.318 86.5632 112.307 86.5772 112.293 86.5882C112.255 86.6171 112.224 86.6543 112.202 86.697C112.181 86.7396 112.169 86.7866 112.169 86.8344C112.125 86.9303 112.105 87.0351 112.109 87.1404C112.102 87.1875 112.081 87.2311 112.047 87.2646H111.863C111.829 87.2596 111.795 87.2625 111.764 87.2729C111.732 87.2834 111.702 87.3012 111.679 87.3248C111.655 87.3485 111.637 87.3774 111.626 87.4093C111.615 87.4412 111.612 87.4751 111.617 87.5085C111.554 87.5706 111.495 87.6948 111.433 87.6948C111.37 87.6948 111.308 87.5706 111.248 87.5706C111.215 87.5669 111.181 87.5705 111.15 87.5813C111.118 87.592 111.089 87.6095 111.064 87.6327C111.015 87.7048 110.993 87.792 111.002 87.8789C111.002 87.9387 111.064 88.0008 111.124 88.0629C111.147 88.0872 111.165 88.1163 111.176 88.1481C111.186 88.1798 111.19 88.2136 111.186 88.247V88.3689C111.153 88.3371 111.11 88.3163 111.064 88.3091C110.972 88.3237 110.886 88.3662 110.818 88.431C110.756 88.4931 110.818 88.5552 110.878 88.5552C110.94 88.6151 111.002 88.6151 111.064 88.6772C111.127 88.7393 111.124 88.7991 111.064 88.7991C111.04 88.8226 111.01 88.8403 110.978 88.851C110.946 88.8618 110.912 88.8653 110.878 88.8612C110.818 88.8612 110.694 88.9233 110.694 88.9831C110.671 89.0079 110.654 89.0374 110.643 89.0696C110.633 89.1019 110.63 89.136 110.634 89.1695C110.634 89.2293 110.572 89.2914 110.51 89.3536C110.448 89.4157 110.388 89.4134 110.388 89.3536C110.388 89.2937 110.448 89.2293 110.51 89.1074C110.572 89.0453 110.572 88.9233 110.51 88.9233C110.461 88.9169 110.412 88.925 110.368 88.9468C110.324 88.9685 110.288 89.0028 110.264 89.0453C110.188 89.1302 110.144 89.2395 110.142 89.3536V89.5376C110.142 89.5997 110.204 89.5997 110.264 89.5997C110.324 89.5997 110.326 89.6595 110.264 89.7216C110.192 89.7713 110.104 89.7933 110.018 89.7838C109.958 89.7838 109.958 89.6595 109.834 89.6595C109.774 89.6595 109.587 89.6595 109.528 89.7216L109.403 89.8436C109.344 89.8436 109.344 89.9057 109.281 89.9057C109.249 89.9079 109.219 89.9218 109.197 89.9447C109.174 89.9676 109.161 89.9979 109.16 90.0299C109.156 90.0631 109.159 90.0968 109.169 90.1285C109.179 90.1603 109.197 90.1895 109.219 90.214C109.226 90.2603 109.248 90.3031 109.281 90.3359C109.281 90.398 109.281 90.4601 109.219 90.4601C109.133 90.4691 109.045 90.4471 108.973 90.398L108.789 90.214C108.729 90.214 108.543 90.214 108.483 90.2738L108.299 90.4601C108.237 90.52 108.175 90.52 108.053 90.52C107.931 90.52 107.807 90.4601 107.683 90.52C107.558 90.5798 107.561 90.6442 107.498 90.704C107.47 90.742 107.432 90.773 107.39 90.7945C107.347 90.816 107.3 90.8275 107.252 90.8282H106.884C106.762 90.8904 106.762 90.9502 106.762 91.0744C106.772 91.2003 106.751 91.3267 106.7 91.4425C106.599 91.6398 106.475 91.825 106.332 91.9947C106.206 92.1974 106.142 92.4325 106.148 92.671C106.163 92.9729 106.248 93.2672 106.394 93.5315C106.516 93.7776 106.516 93.7776 106.516 93.8996C106.516 94.0215 106.454 94.1457 106.516 94.27C106.583 94.3833 106.666 94.4863 106.762 94.5759C106.812 94.6705 106.834 94.7776 106.824 94.8842C106.834 95.0304 106.813 95.177 106.762 95.3144C106.772 95.4404 106.751 95.5668 106.7 95.6825C106.638 95.8045 106.454 95.8666 106.332 95.9885C106.278 96.0347 106.234 96.0913 106.202 96.155C106.171 96.2186 106.152 96.288 106.148 96.3589C106.145 96.4913 106.101 96.6197 106.024 96.727C105.964 96.8489 105.84 96.9111 105.778 96.9732C105.731 97.0835 105.669 97.1866 105.594 97.2792C105.534 97.4034 105.534 97.4655 105.472 97.5874C105.364 97.7527 105.301 97.9428 105.288 98.1396C105.312 98.3736 105.374 98.602 105.472 98.816C105.573 98.9386 105.637 99.088 105.656 99.2462C105.662 99.4126 105.641 99.579 105.594 99.7385C105.594 99.9226 105.534 100.107 105.534 100.291C105.521 100.367 105.525 100.445 105.546 100.52C105.567 100.594 105.605 100.663 105.656 100.721C105.755 100.808 105.839 100.913 105.902 101.029C105.952 101.123 105.974 101.229 105.964 101.335C105.948 101.442 105.969 101.55 106.024 101.643C106.118 101.718 106.221 101.78 106.332 101.827C106.454 101.827 106.578 101.89 106.7 101.89C106.818 101.951 106.922 102.035 107.008 102.136C107.134 102.233 107.282 102.297 107.439 102.32C107.649 102.314 107.857 102.272 108.053 102.196C108.171 102.111 108.274 102.007 108.359 101.89C108.421 101.827 108.483 101.827 108.667 101.827C108.894 101.835 109.122 101.814 109.344 101.765C109.529 101.672 109.68 101.521 109.774 101.335C109.92 101.123 110.043 100.896 110.142 100.659C110.204 100.475 110.204 100.291 110.326 100.169C110.421 100.033 110.503 99.8891 110.572 99.7385C110.648 99.5209 110.689 99.2926 110.694 99.0621C110.684 98.8759 110.705 98.6893 110.756 98.51C110.843 98.2575 110.946 98.0108 111.064 97.7715C111.163 97.5528 111.245 97.3266 111.308 97.0951C111.37 96.9111 111.37 96.727 111.433 96.4808C111.495 96.2347 111.554 95.9287 111.617 95.7447C111.684 95.5936 111.767 95.4495 111.863 95.3144C111.925 95.1304 111.925 94.944 111.985 94.7002C112.051 94.4887 112.133 94.2826 112.231 94.0836C112.413 93.84 112.558 93.571 112.661 93.2853C112.759 92.8835 112.8 92.47 112.783 92.0568C112.783 91.7485 112.845 91.6887 112.907 91.6266C113.033 91.6364 113.16 91.6151 113.275 91.5644C113.368 91.5195 113.452 91.457 113.521 91.3804C113.521 91.3183 113.521 91.2585 113.459 91.2585H113.213C113.153 91.1963 113.153 91.1342 113.213 91.0123C113.255 90.9618 113.283 90.9012 113.294 90.8366C113.305 90.772 113.298 90.7056 113.275 90.6442C113.242 90.4511 113.18 90.2642 113.091 90.0897C113.065 90.0185 113.057 89.9419 113.068 89.8668C113.079 89.7918 113.108 89.7206 113.153 89.6595C113.164 89.6456 113.178 89.6344 113.194 89.6267C113.21 89.619 113.228 89.615 113.245 89.615C113.263 89.615 113.281 89.619 113.297 89.6267C113.312 89.6344 113.326 89.6456 113.337 89.6595C113.4 89.7216 113.4 89.8436 113.459 89.9678C113.519 90.092 113.584 90.214 113.643 90.214C113.703 90.214 113.83 90.1519 113.89 89.9678C113.967 89.7929 114.009 89.6045 114.014 89.4134C113.89 89.4134 113.768 89.2293 113.706 88.9831Z" fill="#C9AB5C"/>
<path d="M114.074 58.3826C114.08 58.3355 114.102 58.2919 114.136 58.2584V58.0744C114.107 58.0368 114.069 58.0063 114.027 57.9852C113.984 57.964 113.937 57.9528 113.89 57.9524C113.833 57.9218 113.77 57.9058 113.706 57.9058C113.641 57.9058 113.578 57.9218 113.521 57.9524C113.459 58.0122 113.459 58.0744 113.4 58.1365C113.4 58.1447 113.398 58.1529 113.395 58.1606C113.392 58.1683 113.388 58.1753 113.382 58.1811C113.376 58.1869 113.369 58.1915 113.362 58.1945C113.354 58.1975 113.346 58.1989 113.337 58.1986C113.275 58.2584 113.213 58.2584 113.153 58.3205C112.965 58.426 112.755 58.4888 112.539 58.5046C112.231 58.5667 111.738 58.6886 111.433 58.7507C111.399 58.747 111.365 58.7507 111.334 58.7614C111.302 58.7721 111.273 58.7897 111.248 58.8129C111.064 58.8129 110.878 58.8727 110.756 58.8727C110.572 58.8727 110.388 58.9348 110.264 58.9348H110.08C109.954 58.9249 109.827 58.9463 109.712 58.9969C109.575 59.0563 109.451 59.1396 109.344 59.2431C109.259 59.3191 109.149 59.3624 109.035 59.365C108.835 59.4163 108.628 59.4372 108.421 59.4271C108.299 59.4271 108.237 59.365 108.175 59.365C108.053 59.365 107.991 59.4271 107.807 59.4892C107.745 59.549 107.623 59.549 107.498 59.6112C107.374 59.6733 107.255 59.6733 107.13 59.7331C106.958 59.8117 106.764 59.8335 106.578 59.7952C106.408 59.7507 106.243 59.689 106.086 59.6112C105.887 59.4647 105.702 59.2999 105.534 59.1188L105.472 59.059L105.225 58.8129C105.119 58.6923 104.995 58.5884 104.857 58.5046C104.763 58.4544 104.656 58.4328 104.549 58.4425H104.365C104.303 58.4425 104.243 58.3826 104.303 58.3205C104.303 58.2584 104.427 58.2584 104.549 58.1986C104.611 58.1986 104.611 58.1986 104.673 58.1365C104.787 58.1343 104.896 58.0901 104.979 58.0122C105.041 57.9524 105.104 57.8903 105.104 57.8282C105.108 57.7227 105.086 57.6177 105.041 57.5222C104.979 57.398 104.919 57.276 104.857 57.1541C104.809 57.0439 104.721 56.956 104.611 56.9079C104.539 56.8587 104.452 56.8367 104.365 56.8458H104.303C104.181 56.7837 104.119 56.7837 104.119 56.7239L104.059 56.6618C104.057 56.6295 104.043 56.5992 104.02 56.5763C103.997 56.5535 103.967 56.5397 103.935 56.5375C103.873 56.4777 103.873 56.4777 103.813 56.4156C103.753 56.3535 103.689 56.2937 103.629 56.2937L103.445 56.1073C103.438 56.061 103.416 56.0182 103.383 55.9854L103.199 55.8013C103.151 55.7968 103.107 55.7746 103.074 55.7392C103.015 55.7392 103.015 55.6771 102.952 55.6771C102.89 55.6173 102.828 55.5552 102.828 55.4931C102.828 55.4333 102.768 55.4333 102.706 55.309C102.589 55.2234 102.485 55.1202 102.398 55.003C102.338 55.003 102.338 54.9409 102.276 54.9409H102.214C102.122 54.9248 102.036 54.8825 101.968 54.819C101.953 54.8167 101.939 54.8088 101.93 54.7968C101.92 54.7848 101.916 54.7697 101.917 54.7546C101.855 54.6925 101.855 54.6303 101.733 54.6303C101.671 54.5705 101.549 54.6303 101.425 54.5705C101.391 54.5742 101.358 54.5706 101.326 54.5598C101.294 54.5491 101.265 54.5316 101.241 54.5084C101.179 54.5084 101.119 54.4463 101.057 54.3244C101.057 54.3161 101.056 54.3079 101.053 54.3002C101.05 54.2925 101.045 54.2855 101.039 54.2797C101.033 54.2739 101.026 54.2693 101.019 54.2663C101.011 54.2633 101.003 54.2619 100.995 54.2622C100.979 54.17 100.937 54.0844 100.873 54.0161C100.848 53.9933 100.819 53.9762 100.787 53.9659C100.755 53.9555 100.722 53.9523 100.689 53.9563C100.655 53.9519 100.621 53.955 100.589 53.9654C100.557 53.9757 100.527 53.993 100.502 54.0161V54.1403C100.502 54.2001 100.502 54.2001 100.442 54.2622C100.434 54.2626 100.426 54.2612 100.418 54.2582C100.411 54.2552 100.404 54.2506 100.398 54.2448C100.392 54.2389 100.387 54.232 100.384 54.2243C100.381 54.2166 100.38 54.2084 100.38 54.2001C100.365 54.1084 100.323 54.0234 100.258 53.9563C100.258 53.8941 100.196 53.832 100.196 53.7101C100.134 53.5859 100.072 53.526 100.012 53.4018C100.012 53.3938 100.011 53.3858 100.008 53.3784C100.004 53.371 99.9997 53.3643 99.9939 53.3587C99.9881 53.3531 99.9813 53.3487 99.9738 53.3459C99.9662 53.343 99.9582 53.3417 99.9502 53.342C99.9437 53.2949 99.9218 53.2512 99.888 53.2178C99.8282 53.1556 99.8282 53.0337 99.7661 52.9118V52.7875C99.7661 52.6656 99.704 52.5414 99.704 52.4194C99.6536 52.2514 99.5921 52.087 99.5199 51.9271C99.4846 51.793 99.422 51.6677 99.3359 51.559C99.2738 51.4969 99.2738 51.4348 99.214 51.3129C99.1518 51.2507 99.0897 51.1288 99.0276 51.0667C98.9655 51.0046 98.9057 51.0069 98.8436 50.9448L98.6595 50.7607L98.4755 50.5767L98.2914 50.3903C98.2293 50.3305 98.1672 50.3305 98.1074 50.2684C98.0475 50.2063 97.9831 50.2063 97.9233 50.1464C97.7923 50.0765 97.685 49.9692 97.615 49.8382C97.5469 49.7263 97.5052 49.6004 97.4931 49.4701V49.3458C97.4959 49.2596 97.4744 49.1743 97.431 49.0997C97.431 48.9777 97.3689 48.9156 97.3091 48.7937C97.2492 48.6717 97.2469 48.4854 97.1848 48.4256V47.9954C97.194 47.9085 97.1719 47.8213 97.1227 47.7492V47.503C97.1309 47.5034 97.1392 47.502 97.1468 47.499C97.1545 47.496 97.1615 47.4914 97.1673 47.4856C97.1732 47.4797 97.1777 47.4728 97.1808 47.4651C97.1838 47.4574 97.1851 47.4492 97.1848 47.4409H97.3091C97.3689 47.4409 97.3689 47.3811 97.3689 47.319C97.3689 47.2569 97.2469 47.1948 97.1848 47.1349L96.9387 46.8888C96.8788 46.7645 96.8167 46.7047 96.8167 46.5805V46.5207C96.8152 46.406 96.7709 46.2961 96.6925 46.2124C96.6327 46.1503 96.6327 46.0905 96.5084 46.0905C96.4486 46.0905 96.3865 46.0283 96.2623 45.9662C96.138 45.9041 96.0184 45.7822 95.8942 45.7201C95.7839 45.6738 95.6808 45.6118 95.5882 45.536C95.511 45.4671 95.4485 45.3834 95.4041 45.2898C95.3303 45.1518 95.268 45.0079 95.2178 44.8596C95.1724 44.7209 95.1522 44.5752 95.158 44.4294C95.158 44.3075 95.2178 44.2454 95.2178 44.1856C95.2178 44.1257 95.158 44.0613 95.0959 44.0015L94.8497 43.7553C94.7743 43.6848 94.712 43.6015 94.6656 43.5092C94.6009 43.4414 94.5583 43.3556 94.5437 43.263C94.4816 43.2009 94.4816 43.1411 94.4195 43.079C94.3574 42.9547 94.2354 42.8328 94.1135 42.6487C94.1135 42.5866 94.0514 42.5866 94.0514 42.5245C93.9209 42.2918 93.7772 42.0668 93.6212 41.8504C93.5276 41.6924 93.4453 41.5278 93.375 41.3581C93.3129 41.2362 93.3129 41.174 93.2531 41.0498C93.1933 40.9256 93.1288 40.806 93.069 40.6817C93.0092 40.5575 92.8827 40.4977 92.8229 40.3757C92.763 40.2538 92.6388 40.1894 92.6388 40.0675C92.5767 39.9455 92.5767 39.8834 92.5146 39.8213C92.4525 39.7592 92.3926 39.6372 92.3305 39.5751C92.2684 39.513 92.1465 39.4532 92.0844 39.3911C92.0222 39.329 91.9624 39.3313 91.9624 39.2691C91.9624 39.207 91.9003 39.207 91.9003 39.1449L91.8382 39.0851L91.7784 39.023C91.7163 38.901 91.592 38.7768 91.5322 38.6549C91.4805 38.5657 91.4135 38.4863 91.3344 38.4202C91.2586 38.3267 91.1967 38.2229 91.1503 38.1119C91.1503 37.99 91.1503 37.9279 91.2101 37.8681C91.2344 37.8449 91.2635 37.8274 91.2953 37.8166C91.3271 37.8059 91.3608 37.8023 91.3942 37.806C91.4563 37.806 91.5184 37.8681 91.5782 37.9279L91.8865 38.2362C91.9887 38.3441 92.0719 38.4686 92.1327 38.6043C92.1948 38.7262 92.1948 38.7883 92.2546 38.8504C92.2691 38.9536 92.2898 39.0558 92.3167 39.1564C92.3188 39.1883 92.3323 39.2184 92.3546 39.2411C92.377 39.2639 92.4068 39.278 92.4386 39.2806C92.5227 39.369 92.6293 39.4327 92.7469 39.4647C92.8869 39.6017 93.0549 39.7069 93.2393 39.773C93.3577 39.8137 93.4822 39.8339 93.6074 39.8328C93.6392 39.8311 93.6692 39.8177 93.6917 39.7952C93.7143 39.7727 93.7276 39.7427 93.7293 39.7109V39.4555C93.7194 39.3296 93.7408 39.2031 93.7914 39.0874C93.7914 38.9632 93.8535 38.9033 93.8535 38.7791C93.8535 38.6549 93.9133 38.5951 93.9133 38.5329V38.3489C93.9042 38.2621 93.9262 38.1748 93.9755 38.1027C93.9912 38.0107 94.0345 37.9257 94.0997 37.8589C94.0997 37.7967 94.1595 37.7346 94.0997 37.6725C94.0997 37.5506 94.0376 37.4286 94.0376 37.3044C94.0231 37.2013 94.0023 37.0991 93.9755 36.9984C93.9755 36.9363 93.9133 36.8742 93.9133 36.8121C93.8535 36.7523 93.7914 36.628 93.7293 36.5682C93.6672 36.5084 93.6074 36.444 93.6074 36.3819C93.5422 36.3151 93.4988 36.23 93.4831 36.138C93.4233 36.0759 93.4233 36.0138 93.2991 36.0138C93.1708 36.0364 93.0467 36.0783 92.931 36.138C92.7932 36.1872 92.6468 36.2076 92.5008 36.1978H91.8865C91.8244 36.1978 91.7646 36.2599 91.7025 36.3221C91.6403 36.3221 91.5782 36.3819 91.4563 36.3819C91.3635 36.3971 91.2775 36.4405 91.2101 36.5061L91.0261 36.6902C90.964 36.6902 90.964 36.6902 90.9041 36.628C90.8443 36.5659 90.7799 36.444 90.658 36.3819C90.5268 36.3065 90.379 36.2646 90.2278 36.2599C89.986 36.2028 89.7371 36.1819 89.4893 36.1978C89.2555 36.2233 89.0273 36.2854 88.8129 36.3819C88.6519 36.4267 88.5047 36.5114 88.385 36.628C88.2607 36.6902 88.0767 36.8121 87.9548 36.8742C87.804 36.9552 87.6286 36.9774 87.4624 36.9363C87.3121 36.9243 87.1658 36.8821 87.0322 36.8121C86.908 36.7523 86.7239 36.7523 86.602 36.6902C86.4613 36.6406 86.3176 36.5998 86.1718 36.5682C86.0498 36.5682 85.9877 36.5061 85.8037 36.5061H85.6795C85.3373 36.4147 84.9878 36.3532 84.635 36.3221C84.3098 36.274 83.9812 36.2533 83.6526 36.2599C83.4064 36.2599 83.4064 36.1978 83.3443 36.138L83.2845 36.0759C83.2224 36.0138 83.2224 35.9517 83.1603 35.8918C83.0383 35.8297 82.9141 35.8297 82.7922 35.7676H82.6081C82.4703 35.7187 82.3239 35.6984 82.1779 35.7078C81.9318 35.6457 81.6856 35.6457 81.5015 35.5836C81.3175 35.5214 81.2554 35.3995 81.1334 35.2776C81.0713 35.1533 80.9494 35.0935 80.7032 35.0314C80.4571 34.9693 80.089 34.9072 79.783 34.8474C79.5558 34.8316 79.3275 34.8517 79.1066 34.9072C78.8923 34.9631 78.6859 35.0458 78.4923 35.1533C78.2414 35.3046 78.0135 35.4914 77.8159 35.7078C77.7508 35.7821 77.7054 35.8717 77.6841 35.9682C77.6628 36.0647 77.6662 36.1651 77.694 36.2599C77.7643 36.4577 77.8054 36.6646 77.8159 36.8742C77.8131 37.0257 77.7711 37.1739 77.694 37.3044C77.646 37.4146 77.558 37.5025 77.4479 37.5506C77.2692 37.6442 77.0847 37.7264 76.8957 37.7967C76.8282 37.8277 76.7549 37.8438 76.6806 37.8438C76.6063 37.8438 76.533 37.8277 76.4655 37.7967C76.2814 37.7346 76.1572 37.5506 75.8512 37.4287C75.5339 37.2615 75.2048 37.1177 74.8666 36.9984C74.5245 36.8926 74.1755 36.8103 73.8221 36.7523C73.5735 36.7044 73.3277 36.643 73.0859 36.5682C72.9018 36.5061 72.9018 36.444 72.7776 36.3221C72.7155 36.1978 72.5936 35.9517 72.5314 35.8297C72.4806 35.6888 72.3961 35.5625 72.2853 35.4616C72.1697 35.387 72.0462 35.3253 71.9172 35.2776C71.9172 35.2155 71.8551 35.2155 71.7331 35.2155H71.1189C70.8106 35.1533 70.4425 35.1533 70.1986 35.0935C70.0327 35.1078 69.8657 35.0866 69.7086 35.0314C69.5272 34.9601 69.3422 34.8986 69.1541 34.8474C68.9953 34.7998 68.8298 34.7788 68.6641 34.7852C68.602 34.7231 68.5399 34.6633 68.4778 34.6633C68.4179 34.6012 68.3558 34.6012 68.2937 34.5391C68.2016 34.523 68.1162 34.4806 68.0475 34.4171L67.9256 34.2929C67.9256 34.2849 67.924 34.2769 67.9209 34.2695C67.9177 34.2621 67.9131 34.2554 67.9073 34.2498C67.9015 34.2442 67.8946 34.2398 67.8871 34.237C67.8796 34.2341 67.8715 34.2328 67.8635 34.2331C67.8346 34.1951 67.7974 34.1642 67.7547 34.1426C67.7121 34.1211 67.6651 34.1096 67.6173 34.1089H67.3735C67.34 34.0751 67.2963 34.0532 67.2492 34.0467H67.1273C67.0652 34.0467 67.0652 34.0467 67.0031 33.9869C66.9084 33.9294 66.8051 33.8875 66.6971 33.8627C66.635 33.8029 66.5729 33.7408 66.513 33.6786V33.4325C66.5277 33.3399 66.5702 33.254 66.635 33.1863C66.6971 33.1265 66.7592 33.0644 66.819 33.0023C66.8811 33.0023 66.9433 32.9425 67.0031 32.8803C67.0629 32.8182 67.1273 32.8182 67.1871 32.7584C67.3114 32.6963 67.4333 32.5721 67.4333 32.5122V31.9578L67.4954 31.898V31.6518C67.4954 31.5897 67.4333 31.5276 67.3735 31.4678C67.3114 31.4678 67.3114 31.4056 67.2492 31.4056C67.1871 31.3435 67.1273 31.3435 67.0652 31.2814C67.0031 31.2193 66.9433 31.1595 66.9433 31.0974V30.9133C67.0031 30.8535 67.0652 30.7293 67.1273 30.6671C67.1894 30.605 67.2492 30.6073 67.2492 30.5452C67.3807 30.4758 67.4881 30.3684 67.5575 30.2369C67.5797 30.1754 67.5857 30.1092 67.5748 30.0447C67.564 29.9802 67.5366 29.9196 67.4954 29.8688C67.45 29.8379 67.3962 29.8213 67.3413 29.8213C67.2863 29.8213 67.2326 29.8379 67.1871 29.8688C67.1273 29.8688 67.1273 29.931 67.0652 29.931H67.0031C66.8999 29.9455 66.7977 29.9662 66.6971 29.9931C66.635 29.9931 66.635 29.9931 66.635 29.931C66.6012 29.8975 66.5793 29.8538 66.5729 29.8067C66.5729 29.7469 66.513 29.6848 66.4509 29.6227C66.3482 29.5367 66.2166 29.4931 66.0828 29.5007H65.5905L65.2224 29.6848C65.0982 29.7469 65.0383 29.7469 64.9141 29.8067C64.7806 29.8767 64.6342 29.919 64.4839 29.931C64.4218 29.931 64.2998 29.9931 64.2377 29.9931H64.1871C64.0725 29.9915 63.9625 29.9472 63.8788 29.8688C63.7851 29.8187 63.6787 29.7972 63.5729 29.8067C63.5107 29.8067 63.4486 29.8067 63.4486 29.8688H63.1426C63.1089 29.8729 63.0747 29.8694 63.0425 29.8587C63.0103 29.8479 62.9808 29.8302 62.9563 29.8067H62.8965C62.8344 29.7469 62.7722 29.7469 62.6503 29.7469H62.2822C62.2201 29.7469 62.2201 29.8067 62.158 29.8067C62.1497 29.8064 62.1415 29.8078 62.1338 29.8108C62.1261 29.8138 62.1192 29.8184 62.1133 29.8242C62.1075 29.83 62.1029 29.837 62.0999 29.8447C62.0969 29.8524 62.0955 29.8606 62.0959 29.8688L61.7278 30.0529C61.612 30.1035 61.4856 30.1249 61.3597 30.115C61.2734 30.1178 61.1881 30.0963 61.1135 30.0529C61.0514 30.0529 61.0514 29.9931 60.9916 29.9931H60.8673C60.7454 29.9309 60.6212 29.931 60.4992 29.8688C60.4318 29.8378 60.3584 29.8218 60.2841 29.8218C60.2099 29.8218 60.1365 29.8378 60.069 29.8688H60.0069C59.885 29.8688 59.8229 29.8688 59.7607 29.931H59.3328C59.2707 29.931 59.2086 29.9309 59.2086 29.9931C59.1221 29.984 59.0351 30.0052 58.9624 30.0529H58.7784C58.7163 30.0529 58.6564 30.115 58.5943 30.115C58.561 30.1113 58.5272 30.1149 58.4954 30.1257C58.4636 30.1364 58.4346 30.154 58.4103 30.1771H58.102C58.0422 30.1771 57.9801 30.2369 57.9179 30.2369C57.8558 30.2369 57.796 30.299 57.6718 30.299H57.1818C56.8854 30.3014 56.5927 30.3641 56.3213 30.4831C56.2112 30.5312 56.1076 30.5931 56.013 30.6671C55.9509 30.7293 55.8911 30.7293 55.7669 30.7914C55.7071 30.7914 55.6449 30.8535 55.5828 30.8535H55.5207C55.3885 30.8561 55.2602 30.8986 55.1526 30.9754C55.0831 31.0022 55.0203 31.0438 54.9686 31.0974C54.9064 31.0974 54.9064 31.0974 54.8466 31.1595C54.7845 31.1595 54.7224 31.2216 54.6626 31.2216C54.6028 31.2216 54.6005 31.2216 54.5383 31.2837C54.4854 31.2918 54.4352 31.3129 54.3923 31.345C54.3493 31.3771 54.315 31.4192 54.2922 31.4678C54.2324 31.5276 54.2324 31.5897 54.1703 31.5897H54.1081C53.9862 31.7116 53.862 31.7737 53.8022 31.898C53.74 31.9578 53.6779 32.0199 53.6158 32.0199C53.5915 32.0431 53.5624 32.0606 53.5307 32.0713C53.4989 32.0821 53.4651 32.0857 53.4318 32.082H53.1258C53.0395 32.0848 52.9542 32.0633 52.8796 32.0199C52.8175 32.0199 52.6956 31.9578 52.6334 31.9578C52.4876 31.9262 52.3439 31.8855 52.2032 31.8359H51.3957C51.2715 31.8359 51.2117 31.898 51.0874 31.898H50.7814C50.6748 31.9076 50.5677 31.886 50.4732 31.8359C50.3357 31.7521 50.2117 31.6482 50.1051 31.5276L50.0429 31.4678L49.8589 31.2814C49.7255 31.1575 49.5485 31.0914 49.3666 31.0974C49.2729 31.1022 49.1825 31.1338 49.1063 31.1884C49.03 31.2431 48.971 31.3185 48.9364 31.4056C48.7685 31.6574 48.6252 31.9248 48.5084 32.204C48.4463 32.3282 48.3842 32.5122 48.3221 32.6342C48.2659 32.7301 48.2248 32.8341 48.2002 32.9425C48.138 33.0023 48.138 33.0644 48.0782 33.1265C48.0077 33.2019 47.9243 33.2642 47.8321 33.3105C47.7699 33.3105 47.7699 33.3106 47.7078 33.3727C47.5523 33.4303 47.407 33.5127 47.2776 33.6165C47.2696 33.6165 47.2616 33.6181 47.2542 33.6213C47.2468 33.6244 47.2401 33.6291 47.2345 33.6349C47.2289 33.6407 47.2245 33.6475 47.2217 33.6551C47.2188 33.6626 47.2175 33.6706 47.2178 33.6786C47.1557 33.7408 47.0936 33.7408 46.9716 33.8029C46.8109 33.873 46.6466 33.9345 46.4793 33.9869C46.4172 33.9869 46.3574 34.0467 46.2952 34.0467C46.0523 34.1353 45.8243 34.2602 45.6189 34.4171L45.5568 34.477C45.444 34.5446 45.341 34.6274 45.2508 34.7231C45.2131 34.7524 45.1825 34.7897 45.161 34.8322C45.1395 34.8748 45.1277 34.9216 45.1265 34.9693C45.0847 35.0444 45.0641 35.1295 45.0667 35.2155C45.0667 35.3374 45.0046 35.3995 45.0046 35.4616C45.0046 35.5237 44.9425 35.5836 44.8827 35.6457L44.8206 35.7078L44.6365 35.8918C44.5497 36.018 44.5061 36.169 44.5123 36.3221V37.0583C44.5123 37.1825 44.4525 37.3665 44.4525 37.4287C44.4367 37.5207 44.3934 37.6057 44.3282 37.6725C44.2661 37.7346 44.2063 37.8589 44.1442 37.9187L44.0821 37.9808L43.9601 38.1027C43.898 38.1648 43.898 38.227 43.8359 38.2868C43.7761 38.3489 43.714 38.4731 43.6518 38.5329L43.4678 38.717L43.408 38.7791C43.3459 38.7791 43.3459 38.8412 43.2837 38.8412C43.1618 38.9033 43.0997 38.9632 42.9778 39.0253C42.9156 39.0874 42.8535 39.1472 42.7914 39.1472C42.6695 39.2093 42.5475 39.3336 42.4233 39.3934C42.2854 39.4669 42.1415 39.5285 41.9931 39.5774C41.8339 39.6499 41.6702 39.7121 41.5031 39.7638C41.3788 39.8236 41.1948 39.8236 41.0729 39.8857C40.8157 39.93 40.5667 40.013 40.3344 40.1319C40.1446 40.2611 40.0125 40.4591 39.9663 40.684C39.9041 40.8083 39.842 40.8681 39.842 40.9923V41.0521C39.7822 41.1763 39.7201 41.2983 39.658 41.4225C39.5873 41.4978 39.504 41.5601 39.4118 41.6066C39.2899 41.6687 39.168 41.6687 39.0437 41.7285C39.0117 41.7307 38.9816 41.7446 38.9592 41.7675C38.9367 41.7904 38.9234 41.8207 38.9218 41.8527C38.8747 41.9008 38.839 41.9588 38.8175 42.0226C38.796 42.0863 38.7892 42.1541 38.7975 42.2208V42.2829C38.7377 42.4049 38.7377 42.467 38.6756 42.5268L38.6135 42.5889L38.5514 42.651C38.4219 42.7612 38.3355 42.9136 38.3075 43.0813C38.2809 43.182 38.2601 43.2841 38.2454 43.3872C38.2454 43.4494 38.1833 43.5115 38.1833 43.5736C38.1212 43.6955 38.1212 43.7576 38.0614 43.8175C38.0321 43.8551 37.9948 43.8858 37.9522 43.9072C37.9097 43.9287 37.8629 43.9405 37.8152 43.9417C37.7675 43.9463 37.7232 43.9684 37.691 44.0038C37.4764 44.0579 37.2699 44.1399 37.0767 44.2477C36.8842 44.3799 36.718 44.5469 36.5867 44.74C36.5867 44.8021 36.5245 44.8021 36.5245 44.8619C36.4582 44.9763 36.3753 45.0802 36.2784 45.1702L36.0943 45.3543C36.0322 45.4164 35.9103 45.5383 35.9103 45.6004C35.8482 45.7224 35.8482 45.9087 35.786 46.0306C35.79 46.0638 35.7868 46.0975 35.7764 46.1293C35.7661 46.161 35.749 46.1902 35.7262 46.2147C35.7262 46.2768 35.6641 46.3389 35.602 46.3987C35.5557 46.4057 35.5129 46.4275 35.4801 46.4609C35.4467 46.4572 35.413 46.4608 35.3812 46.4715C35.3494 46.4823 35.3203 46.4998 35.296 46.523C35.1718 46.5828 35.112 46.707 34.9877 46.829C34.9199 46.9409 34.8782 47.0667 34.8658 47.1971V47.6227C34.8661 47.6703 34.8772 47.7172 34.8983 47.7598C34.9194 47.8025 34.95 47.8398 34.9877 47.8688L35.112 47.9931L35.1718 48.0529C35.2612 48.1504 35.3652 48.2335 35.4801 48.299C35.5422 48.3612 35.5422 48.4233 35.602 48.5452C35.602 48.6694 35.6641 48.7914 35.6641 48.9133V49.2837C35.6494 49.3868 35.6286 49.489 35.602 49.5897C35.6023 49.5977 35.601 49.6058 35.5981 49.6133C35.5953 49.6208 35.5909 49.6277 35.5853 49.6335C35.5797 49.6393 35.573 49.6439 35.5656 49.647C35.5582 49.6502 35.5502 49.6518 35.5422 49.6518C35.4801 49.6518 35.4801 49.6518 35.4179 49.7139C35.3558 49.7139 35.3558 49.7737 35.4179 49.898C35.4179 49.9578 35.4801 49.9578 35.5422 50.0199C35.6169 50.0911 35.6791 50.1743 35.7262 50.2661C35.7978 50.4049 35.8594 50.5486 35.9103 50.6963C35.9724 50.8545 35.9724 51.0304 35.9103 51.1886C35.8987 51.3781 35.8568 51.5646 35.786 51.7408C35.7547 51.8867 35.714 52.0304 35.6641 52.171C35.5926 52.3311 35.5311 52.4955 35.4801 52.6633C35.4801 52.7231 35.4179 52.7231 35.4179 52.7852C35.3532 52.853 35.3106 52.9389 35.296 53.0314C35.2405 53.1676 35.2192 53.3153 35.2339 53.4616C35.2143 53.6303 35.1734 53.7957 35.112 53.954C35.0324 54.15 34.9289 54.3355 34.8037 54.5061C34.8037 54.5682 34.7416 54.5682 34.6818 54.628L34.4954 54.8144C34.4356 54.8742 34.3735 54.9363 34.3114 54.9363C34.1894 55.0582 34.1273 55.0583 34.1894 55.1825C34.2515 55.2446 34.3114 55.3665 34.4356 55.4885V55.5506C34.5619 55.8377 34.7267 56.1063 34.9256 56.3489V56.411C34.9176 56.411 34.9096 56.4126 34.9022 56.4158C34.8948 56.4189 34.8881 56.4235 34.8825 56.4293C34.8769 56.4351 34.8725 56.442 34.8697 56.4495C34.8668 56.4571 34.8655 56.4651 34.8658 56.4731H34.8037C34.7416 56.5329 34.6818 56.5329 34.6196 56.5951C34.5965 56.6194 34.5789 56.6484 34.5682 56.6802C34.5575 56.712 34.5538 56.7458 34.5575 56.7791C34.5575 56.8412 34.6196 56.9033 34.6196 56.9632V57.2093C34.6196 57.2714 34.6818 57.3336 34.7416 57.3934H34.8037C34.8488 57.4864 34.9112 57.57 34.9877 57.6395H34.8658C34.7416 57.6395 34.6196 57.6395 34.6196 57.7017C34.5575 57.7638 34.6196 57.8236 34.6818 57.8857C34.7439 57.9478 34.8658 57.9478 34.9256 58.0076C34.9854 58.0675 34.9877 58.1319 35.0499 58.1319C35.112 58.194 35.112 58.194 35.2339 58.194H35.4801C35.5422 58.194 35.5422 58.194 35.5422 58.2538C35.602 58.3159 35.602 58.378 35.6641 58.378C35.6975 58.3817 35.7312 58.3781 35.763 58.3674C35.7948 58.3566 35.8239 58.3391 35.8482 58.3159H36.0943C36.1564 58.3159 36.2163 58.3159 36.2163 58.378C36.2117 58.4246 36.1905 58.4679 36.1564 58.5C36.123 58.5338 36.0793 58.5556 36.0322 58.5621H35.9103C35.818 58.5777 35.7324 58.6201 35.6641 58.684L35.602 58.7461C35.4801 58.8083 35.3558 58.9302 35.2339 58.9923C35.1718 58.9923 35.1718 58.9923 35.112 59.0544V59.2385C35.112 59.2983 35.1718 59.2983 35.2339 59.2983L35.296 59.2385C35.4549 59.1659 35.6187 59.1044 35.786 59.0544H35.9724C36.0322 59.0544 36.0943 59.1142 36.1564 59.1763H36.5245C36.6465 59.1763 36.7086 59.2385 36.7707 59.2385C36.8328 59.2385 36.8305 59.2385 36.8305 59.2983C36.8351 59.346 36.8573 59.3902 36.8926 59.4225V59.5444C36.8926 59.6066 36.9548 59.6066 37.0169 59.6066C37.0249 59.6066 37.0329 59.6082 37.0403 59.6113C37.0477 59.6145 37.0544 59.6191 37.06 59.6249C37.0656 59.6307 37.0699 59.6376 37.0728 59.6451C37.0757 59.6526 37.077 59.6606 37.0767 59.6687C37.1388 59.6687 37.1388 59.7285 37.2009 59.7906V59.9747C37.1919 60.0612 37.213 60.1481 37.2607 60.2208C37.3229 60.2829 37.385 60.4049 37.5069 60.467C37.569 60.5291 37.6311 60.5291 37.691 60.5889C37.7381 60.5954 37.7817 60.6172 37.8152 60.651C37.8773 60.7132 37.9371 60.7132 37.9371 60.7753L37.9992 60.8351C38.0075 60.8348 38.0157 60.8362 38.0234 60.8392C38.0311 60.8422 38.038 60.8467 38.0439 60.8526C38.0497 60.8584 38.0543 60.8654 38.0573 60.8731C38.0603 60.8807 38.0617 60.889 38.0614 60.8972C38.1212 60.9593 38.1833 60.9593 38.1833 61.0191L38.2454 61.0813C38.3075 61.1434 38.3075 61.2032 38.3673 61.2032C38.3673 61.2653 38.4295 61.2653 38.4295 61.3274C38.4942 61.3951 38.5368 61.481 38.5514 61.5736C38.5514 61.5816 38.553 61.5896 38.5561 61.597C38.5593 61.6044 38.5639 61.6111 38.5697 61.6167C38.5755 61.6223 38.5824 61.6267 38.5899 61.6295C38.5974 61.6324 38.6055 61.6337 38.6135 61.6334V62.0636C38.6138 62.0719 38.6124 62.0801 38.6094 62.0878C38.6064 62.0955 38.6019 62.1024 38.596 62.1083C38.5902 62.1141 38.5832 62.1187 38.5755 62.1217C38.5679 62.1247 38.5596 62.1261 38.5514 62.1257C38.5192 62.1601 38.4983 62.2034 38.4916 62.25C38.4613 62.2834 38.4446 62.3268 38.4446 62.3719C38.4446 62.417 38.4613 62.4604 38.4916 62.4938L38.6756 62.6802L38.7377 62.74C38.7976 62.8021 38.7976 62.8642 38.8597 62.8642C38.856 62.8976 38.8596 62.9313 38.8703 62.9631C38.8811 62.9949 38.8986 63.024 38.9218 63.0483C38.9816 63.1104 39.0437 63.1104 39.1656 63.1702C39.1994 63.1662 39.2336 63.1696 39.2658 63.1804C39.298 63.1911 39.3274 63.2089 39.352 63.2323C39.4118 63.2944 39.4739 63.2944 39.4739 63.3543C39.4739 63.4141 39.536 63.4164 39.536 63.4785V63.5406C39.5441 63.5933 39.5652 63.6432 39.5973 63.6858C39.6294 63.7283 39.6716 63.7622 39.7201 63.7845C39.7922 63.8337 39.8794 63.8557 39.9663 63.8466C40.0261 63.8466 40.1503 63.9087 40.2124 63.9087C40.2745 63.9087 40.3344 63.9685 40.3965 63.9685C40.5333 64.0531 40.6573 64.157 40.7646 64.2768C40.8719 64.3967 40.9958 64.5005 41.1327 64.5851C41.1948 64.6449 41.2569 64.6449 41.3167 64.707C41.325 64.7067 41.3332 64.7081 41.3409 64.7111C41.3486 64.7141 41.3555 64.7187 41.3614 64.7245C41.3672 64.7303 41.3718 64.7373 41.3748 64.745C41.3778 64.7527 41.3792 64.7609 41.3788 64.7691C41.4734 64.8432 41.577 64.9051 41.6871 64.9532C41.7469 65.0153 41.8091 65.0153 41.8091 65.0751C41.8556 65.0814 41.8986 65.1033 41.931 65.1372C42.0552 65.1994 42.1173 65.2592 42.2393 65.3213L42.4233 65.5053C42.4233 65.5675 42.4854 65.5675 42.4854 65.6296C42.5475 65.6894 42.6074 65.8136 42.7316 65.8734C42.8246 65.9492 42.9276 66.0119 43.0376 66.0598C43.0456 66.0595 43.0537 66.0608 43.0612 66.0637C43.0687 66.0665 43.0756 66.0709 43.0814 66.0765C43.0872 66.0821 43.0918 66.0888 43.0949 66.0962C43.0981 66.1036 43.0997 66.1115 43.0997 66.1196C43.2134 66.1859 43.3166 66.2689 43.4057 66.3658C43.4678 66.4279 43.5299 66.49 43.592 66.49C43.592 66.5498 43.6518 66.5498 43.6518 66.6119C43.7224 66.6873 43.8057 66.7496 43.898 66.796C43.9601 66.8581 44.0821 66.8581 44.2063 66.9202C44.366 66.9908 44.5296 67.0523 44.6963 67.1043C44.8335 67.1643 44.9782 67.2053 45.1265 67.2262C45.2332 67.2361 45.3403 67.2145 45.4348 67.1641C45.4969 67.1641 45.5568 67.1043 45.6189 67.1043C45.8029 67.0421 46.0491 66.9202 46.3574 66.796C46.6188 66.6759 46.8878 66.5729 47.1626 66.4877C47.4087 66.4256 47.6526 66.3635 47.839 66.3013H48.513C48.5995 66.3106 48.6866 66.2894 48.7592 66.2415C48.8859 66.2514 49.0131 66.2301 49.1296 66.1794H50.0499C50.1567 66.1956 50.2659 66.1736 50.3581 66.1173C50.3578 66.1094 50.3591 66.1014 50.362 66.094C50.3649 66.0866 50.3693 66.0799 50.3749 66.0743C50.3806 66.0687 50.3873 66.0643 50.3947 66.0614C50.4021 66.0585 50.41 66.0572 50.4179 66.0575C50.4514 66.0237 50.4951 66.0018 50.5422 65.9954C50.6043 65.9954 50.6641 65.9333 50.7262 65.9333C50.7262 65.9954 50.7883 65.9954 50.7883 66.0575L50.9724 66.2415C51.0847 66.3087 51.2103 66.3503 51.3405 66.3635C51.4647 66.4256 51.5245 66.4256 51.6488 66.4877C51.6782 66.525 51.7155 66.5554 51.7581 66.5764C51.8007 66.5975 51.8474 66.6089 51.8949 66.6096C52.025 66.5961 52.1506 66.5545 52.263 66.4877L52.3229 66.4256C52.385 66.4256 52.4471 66.3635 52.5092 66.3635C52.6311 66.3013 52.7531 66.3013 52.8773 66.2415C52.9992 66.2415 53.1235 66.2415 53.1833 66.1794C53.2308 66.1787 53.2775 66.1673 53.3201 66.1462C53.3627 66.1251 53.4001 66.0948 53.4295 66.0575C53.4916 66.0575 53.4916 65.9954 53.5537 65.9954C53.6756 65.9332 53.8597 65.8113 53.9839 65.7492C54.1029 65.6982 54.2261 65.6574 54.352 65.6273C54.5006 65.6068 54.6455 65.565 54.7822 65.503C54.9522 65.4917 55.1189 65.4505 55.2745 65.3811C55.4586 65.319 55.5805 65.2569 55.7646 65.1971C55.932 65.145 56.0964 65.0835 56.2569 65.013C56.319 65.013 56.3788 64.9509 56.441 64.9509C56.5616 64.9196 56.6848 64.8988 56.8091 64.8888H57.0552C57.1795 64.8888 57.2393 64.8267 57.3014 64.8267C57.3635 64.8267 57.4233 64.7668 57.4854 64.7668H57.7316C57.8535 64.7668 57.9778 64.8267 58.0997 64.8267C58.2216 64.8267 58.2837 64.8267 58.3459 64.7668H58.9601C59.1313 64.7703 59.2995 64.812 59.4525 64.8888C59.614 64.9341 59.7618 65.0187 59.8827 65.1349L60.0667 65.319L60.3129 65.5652C60.375 65.6273 60.4348 65.6273 60.4969 65.6871C60.5052 65.6868 60.5134 65.6881 60.5211 65.6912C60.5288 65.6942 60.5357 65.6987 60.5416 65.7046C60.5474 65.7104 60.552 65.7174 60.555 65.7251C60.558 65.7327 60.5594 65.741 60.5591 65.7492C60.5931 65.7813 60.6143 65.8246 60.6189 65.8711L60.5591 65.9333V66.1794C60.6189 66.3014 60.681 66.4256 60.7431 66.5475C60.7428 66.5556 60.7441 66.5636 60.747 66.5711C60.7498 66.5786 60.7542 66.5855 60.7598 66.5913C60.7654 66.5971 60.7721 66.6017 60.7795 66.6049C60.7869 66.608 60.7949 66.6096 60.8029 66.6096C60.865 66.7937 60.865 66.9179 60.9271 66.9777C60.9992 67.027 61.0865 67.049 61.1733 67.0398H61.5414C61.6483 67.0237 61.7574 67.0457 61.8497 67.102H62.1557C62.2178 67.102 62.2799 67.0398 62.3397 66.9777C62.3694 66.9408 62.4069 66.9107 62.4494 66.8896C62.4919 66.8686 62.5385 66.857 62.5859 66.8558H62.954C63.0902 66.9111 63.2379 66.9324 63.3842 66.9179C63.5084 66.9179 63.6925 66.8558 63.7546 66.8558C63.8144 66.7937 63.8144 66.7937 63.8144 66.7316V66.6717C63.8144 66.6096 63.8765 66.6096 63.9985 66.6096C64.1249 66.6407 64.2487 66.6815 64.3689 66.7316H64.615C64.6748 66.7316 64.737 66.7937 64.7991 66.7937C64.8589 66.8558 64.9831 66.9777 64.9831 67.0398C64.9831 67.102 64.8589 67.1618 64.8589 67.1618C64.9066 67.1664 64.9508 67.1885 64.9831 67.2239C65.0175 67.2567 65.0388 67.3008 65.0429 67.3481C65.1051 67.3481 65.1672 67.286 65.2293 67.2239C65.3373 67.2487 65.4406 67.2906 65.5353 67.3481C65.5974 67.4079 65.7193 67.4079 65.7814 67.5322C65.8436 67.592 65.8436 67.7162 65.9034 67.8382C65.9632 67.9601 66.0276 68.0222 66.0276 68.1464C66.0178 68.2926 66.039 68.4392 66.0897 68.5767V68.9448C66.0897 69.0667 65.9655 69.1909 65.9655 69.375H65.9034C65.8436 69.375 65.8436 69.4969 65.7814 69.559V69.8052C65.7851 69.8385 65.7815 69.8723 65.7708 69.9041C65.76 69.9359 65.7425 69.9649 65.7193 69.9892C65.6595 70.0513 65.6595 70.1112 65.5974 70.1733L65.5353 70.2354C65.4583 70.3189 65.4148 70.4278 65.4133 70.5414C65.4133 70.6035 65.4732 70.6656 65.5353 70.7875V71.1579C65.5327 71.1894 65.519 71.2189 65.4967 71.2413C65.4743 71.2636 65.4448 71.2773 65.4133 71.2799C65.3512 71.2799 65.2891 71.342 65.2293 71.4018C65.1695 71.4616 65.2293 71.5882 65.2293 71.648C65.2891 71.7101 65.3512 71.7101 65.4732 71.7722C65.5974 71.832 65.6595 71.8941 65.7193 71.8941C65.7791 71.8941 65.7193 71.9563 65.6595 71.9563H65.4732C65.3871 71.9471 65.3005 71.9691 65.2293 72.0184C65.1672 72.0782 65.1672 72.1403 65.1051 72.2622V72.3865C65.1088 72.4198 65.1051 72.4536 65.0944 72.4854C65.0837 72.5172 65.0661 72.5462 65.0429 72.5705C65.0429 72.6326 64.9831 72.6925 64.921 72.7546C64.9128 72.7542 64.9045 72.7556 64.8969 72.7586C64.8892 72.7616 64.8822 72.7662 64.8764 72.772C64.8705 72.7779 64.866 72.7849 64.863 72.7925C64.86 72.8002 64.8586 72.8084 64.8589 72.8167L64.737 72.9386C64.6749 73.0007 64.6127 73.0007 64.6127 73.0628C64.609 73.0962 64.6127 73.13 64.6234 73.1618C64.6341 73.1935 64.6517 73.2226 64.6748 73.2469C64.737 73.3067 64.737 73.3688 64.737 73.4931V73.5529C64.737 73.615 64.6749 73.6771 64.737 73.6771C64.737 73.7369 64.7991 73.799 64.921 73.799H65.1672C65.2005 73.7954 65.2343 73.799 65.2661 73.8097C65.2979 73.8205 65.3269 73.838 65.3512 73.8612V73.9233C65.3175 73.955 65.275 73.9759 65.2293 73.9831H65.1672C65.1051 73.9831 65.0429 73.9831 65.0429 74.0452V74.1073L65.1051 74.1671C65.1133 74.1668 65.1215 74.1682 65.1292 74.1712C65.1369 74.1742 65.1439 74.1788 65.1497 74.1846C65.1555 74.1905 65.1601 74.1974 65.1631 74.2051C65.1661 74.2128 65.1675 74.221 65.1672 74.2293H65.2293C65.2373 74.2293 65.2453 74.2309 65.2527 74.234C65.2601 74.2372 65.2668 74.2418 65.2724 74.2476C65.278 74.2534 65.2824 74.2603 65.2852 74.2678C65.2881 74.2753 65.2894 74.2833 65.2891 74.2914H65.1074V74.3535C65.1074 74.4133 65.1695 74.4754 65.2316 74.5375L65.2914 74.5974C65.3535 74.6595 65.4156 74.6595 65.4755 74.7216C65.5376 74.7216 65.5376 74.7837 65.5997 74.7837H65.7216C65.8459 74.7837 65.9057 74.8435 65.9678 74.8435C66.0299 74.8435 66.0299 74.9056 65.9678 74.9056H65.8459C65.7987 74.9121 65.7551 74.934 65.7216 74.9678C65.7216 75.0276 65.7216 75.0897 65.9678 75.2737C66.0299 75.3359 66.1518 75.398 66.2761 75.5199C66.398 75.582 66.4601 75.704 66.5821 75.7661C66.8201 75.9566 67.046 76.1617 67.2584 76.3803L67.3804 76.5023L67.4425 76.5644C67.5046 76.6265 67.5667 76.7484 67.6887 76.8106C67.7508 76.9325 67.8727 77.0567 67.9348 77.1787C67.958 77.2029 67.9755 77.232 67.9863 77.2638C67.997 77.2956 68.0006 77.3293 67.9969 77.3627C67.9969 77.4248 68.0568 77.4869 68.0568 77.5467C68.1189 77.671 68.181 77.7331 68.2408 77.7331C68.2408 77.7412 68.2424 77.7491 68.2456 77.7565C68.2487 77.7639 68.2533 77.7706 68.2591 77.7762C68.2649 77.7818 68.2718 77.7862 68.2793 77.789C68.2868 77.7919 68.2949 77.7932 68.3029 77.7929C68.3786 77.8864 68.4406 77.9902 68.487 78.1012V78.2852C68.5022 78.3781 68.5456 78.464 68.6112 78.5314L68.671 78.5935C68.6979 78.6942 68.7186 78.7964 68.7331 78.8995C68.671 78.8995 68.6112 78.9616 68.6112 79.0836C68.6511 79.2843 68.7352 79.4737 68.8574 79.638C68.9172 79.7599 68.9793 79.8221 69.0414 79.944C69.1633 80.3121 69.2853 80.5582 69.4095 80.8642C69.5301 81.1645 69.6323 81.4718 69.7155 81.7845C69.7776 82.0306 69.7155 82.1549 69.6557 82.2147C69.656 82.2229 69.6546 82.2312 69.6516 82.2388C69.6486 82.2465 69.644 82.2535 69.6382 82.2593C69.6324 82.2652 69.6254 82.2697 69.6177 82.2727C69.61 82.2757 69.6018 82.2771 69.5936 82.2768H69.5314C69.4095 82.3389 69.3474 82.401 69.3474 82.4609C69.3474 82.5207 69.3474 82.5851 69.5314 82.7691C69.5314 82.8313 69.5936 82.8313 69.5936 82.8911V82.9532C69.7155 83.3213 69.9617 83.8734 70.0859 84.306C70.1913 84.6449 70.2531 84.9959 70.2699 85.3504C70.2837 85.5367 70.2627 85.724 70.2078 85.9026C70.1263 86.0938 70.0001 86.2627 69.8397 86.3949L69.7155 86.5168H69.6557C69.5628 86.5321 69.4769 86.5755 69.4095 86.6411C69.3221 86.7489 69.2593 86.8745 69.2255 87.0092V87.1311C69.179 87.2233 69.1167 87.3066 69.0414 87.3773H68.9793C68.9172 87.3773 68.7952 87.4394 68.7952 87.6234C68.7415 87.8255 68.7001 88.0306 68.671 88.2377C68.6803 88.344 68.6596 88.4508 68.6112 88.546C68.5491 88.7898 68.5491 88.9762 68.487 89.1602C68.4798 89.206 68.4589 89.2485 68.4271 89.2822C68.365 89.3443 68.365 89.4064 68.3029 89.4662C68.2537 89.5383 68.2317 89.6256 68.2408 89.7124C68.181 89.8366 68.1189 89.9586 68.0568 90.0805C67.9969 90.1426 67.9969 90.2668 67.9348 90.3267C67.8727 90.4509 67.8106 90.4509 67.7508 90.5728V90.8811C67.7508 91.0651 67.8106 91.3113 67.8106 91.5552V91.8635C67.8146 91.8966 67.8113 91.9303 67.801 91.9621C67.7906 91.9939 67.7735 92.023 67.7508 92.0475V92.5398C67.768 92.7283 67.8089 92.9138 67.8727 93.092C67.9435 93.2816 68.0257 93.4667 68.1189 93.6464C68.1812 93.7628 68.2647 93.8666 68.365 93.9524C68.487 94.1365 68.6112 94.3205 68.7952 94.6288C68.9961 94.9799 69.1603 95.3507 69.2853 95.7354C69.2922 95.7817 69.314 95.8245 69.3474 95.8573C69.3998 96.0246 69.4613 96.189 69.5314 96.3497C69.5786 96.4414 69.6408 96.5247 69.7155 96.5958C69.7913 96.6888 69.854 96.7918 69.9018 96.9018C69.9759 96.9964 70.0378 97.1 70.0859 97.2101C70.1457 97.2699 70.1457 97.3941 70.2078 97.4563L70.3919 97.6403C70.454 97.7001 70.5161 97.8244 70.5759 97.8865C70.6942 98.029 70.7784 98.1966 70.8221 98.3765C70.8759 98.639 70.8968 98.9072 70.8842 99.1748V99.6671C70.8531 99.8507 70.8531 100.038 70.8842 100.222C70.8977 100.352 70.9394 100.477 71.0061 100.59V100.712C71.0033 100.798 71.0249 100.883 71.0683 100.958V101.02C71.0591 101.107 71.0811 101.194 71.1304 101.266L71.1902 101.326C71.2678 101.456 71.3105 101.604 71.3144 101.756V102.432C71.317 102.546 71.3603 102.656 71.4364 102.741V103.067C71.4364 103.13 71.4364 103.192 71.4985 103.192C71.5606 103.252 71.6204 103.252 71.6204 103.314C71.6347 103.324 71.6463 103.338 71.6543 103.354C71.6623 103.37 71.6664 103.388 71.6664 103.406C71.6664 103.423 71.6623 103.441 71.6543 103.457C71.6463 103.473 71.6347 103.487 71.6204 103.498C71.5606 103.56 71.5606 103.622 71.5606 103.744C71.5606 103.806 71.6204 103.866 71.6204 103.99C71.6204 104.052 71.6825 104.174 71.6825 104.236V104.358C71.6729 104.465 71.6945 104.572 71.7446 104.666C71.7446 104.726 71.8068 104.726 71.8666 104.788C71.953 104.906 72.0569 105.01 72.1748 105.097C72.2968 105.219 72.3589 105.403 72.5429 105.587C72.7015 105.714 72.8457 105.858 72.9732 106.017C73.0893 106.172 73.1924 106.337 73.2814 106.509C73.3413 106.631 73.4655 106.755 73.5253 106.877C73.5253 106.939 73.5253 106.939 73.5874 107.002C73.6372 107.142 73.6786 107.286 73.7117 107.432V107.554C73.7228 107.704 73.7643 107.85 73.8336 107.984C73.8336 108.108 73.8957 108.168 73.9555 108.292C74.0467 108.503 74.1496 108.708 74.2638 108.906V108.966L74.4479 109.337C74.5568 109.529 74.6798 109.714 74.816 109.889L74.8781 109.951C74.9402 110.013 75.0023 110.073 75.0023 110.135C75.0621 110.257 75.1242 110.319 75.1242 110.443V110.565V110.933C75.1389 111.08 75.1176 111.227 75.0621 111.363C75.0023 111.426 74.9402 111.488 74.8781 111.488H74.7561C74.7241 111.489 74.6938 111.503 74.6709 111.525C74.648 111.548 74.6341 111.578 74.6319 111.61C74.6631 111.736 74.7047 111.859 74.7561 111.978C74.816 112.102 74.8781 112.286 74.9402 112.408C74.9402 112.47 75.0023 112.532 75.0023 112.592C75.0621 112.778 75.1242 112.838 75.1242 112.962V113.022C75.1242 113.084 75.0621 113.206 75.0621 113.268C75.0621 113.33 75.1242 113.393 75.2462 113.393C75.3083 113.393 75.3083 113.33 75.3704 113.33H75.4325C75.4923 113.33 75.4923 113.33 75.5544 113.393C75.5544 113.401 75.5561 113.409 75.5592 113.416C75.5624 113.423 75.567 113.43 75.5728 113.436C75.5786 113.441 75.5854 113.446 75.593 113.449C75.6005 113.451 75.6085 113.453 75.6166 113.452V113.577C75.6187 113.608 75.6323 113.638 75.6547 113.66C75.6771 113.683 75.7069 113.696 75.7385 113.699H75.8006C75.8477 113.703 75.8914 113.725 75.9225 113.761C76.0166 113.836 76.1203 113.898 76.2308 113.945C76.2305 113.953 76.2318 113.961 76.2347 113.968C76.2376 113.976 76.2419 113.983 76.2475 113.989C76.2531 113.994 76.2598 113.999 76.2672 114.002C76.2746 114.005 76.2826 114.007 76.2906 114.007C76.3785 114.106 76.4828 114.189 76.5989 114.253C76.7152 114.302 76.8413 114.322 76.967 114.313C77.0913 114.313 77.1511 114.191 77.2753 114.129C77.3374 114.129 77.3374 114.067 77.3972 114.067C77.5713 113.963 77.7575 113.881 77.9517 113.823C78.0736 113.761 78.2577 113.761 78.4417 113.699C78.6258 113.699 78.8121 113.636 78.9341 113.636C79.1181 113.577 79.3021 113.577 79.3643 113.515L79.4862 113.393L79.5483 113.33C79.5726 113.307 79.6017 113.29 79.6335 113.279C79.6653 113.268 79.699 113.265 79.7324 113.268H80.3466C80.4733 113.278 80.6005 113.257 80.717 113.206H81.4417C81.5756 113.275 81.7218 113.318 81.8719 113.33C82.0239 113.408 82.1979 113.429 82.3643 113.393C82.4241 113.393 82.5483 113.33 82.6104 113.33C82.6725 113.33 82.6702 113.33 82.7324 113.268C82.8444 113.275 82.9559 113.248 83.0521 113.19H83.3581C83.3902 113.189 83.4205 113.175 83.4434 113.153C83.4663 113.13 83.4802 113.1 83.4824 113.068H83.5422C83.6923 112.984 83.8624 112.942 84.0345 112.946H84.1564C84.4506 112.892 84.7387 112.81 85.0169 112.7C85.2787 112.624 85.5133 112.475 85.6933 112.27C85.7937 112.183 85.8771 112.079 85.9394 111.962C86.0015 111.902 86.0614 111.778 86.1235 111.715C86.2181 111.641 86.3216 111.58 86.4317 111.531C86.4916 111.531 86.5537 111.472 86.6779 111.472C86.8897 111.368 87.0778 111.221 87.2301 111.041C87.3654 110.844 87.4883 110.639 87.5982 110.427C87.7465 110.229 87.9112 110.043 88.0905 109.873H88.1526C88.2124 109.811 88.3367 109.811 88.3965 109.751C88.4711 109.707 88.5564 109.686 88.6426 109.689C88.7048 109.689 88.8267 109.689 88.8267 109.627C88.8498 109.602 88.8674 109.573 88.8781 109.541C88.8889 109.51 88.8925 109.476 88.8888 109.442C88.9018 109.312 88.9443 109.186 89.013 109.074C89.013 109.012 89.0729 109.012 89.0729 108.95C89.0728 108.942 89.0745 108.934 89.0776 108.927C89.0808 108.919 89.0854 108.913 89.0912 108.907C89.097 108.901 89.1038 108.897 89.1114 108.894C89.1189 108.891 89.1269 108.89 89.135 108.89C89.135 108.828 89.1971 108.828 89.1971 108.766C89.2784 108.609 89.3814 108.464 89.5031 108.336L89.5652 108.276C89.6273 108.152 89.7492 108.03 89.7492 107.906C89.7492 107.846 89.7492 107.784 89.8114 107.784C89.8114 107.722 89.8114 107.722 89.8712 107.722C89.913 107.626 89.9769 107.542 90.0575 107.475C90.1173 107.416 90.1794 107.416 90.2416 107.353C90.3037 107.291 90.4256 107.232 90.4877 107.169L90.5475 107.107L90.6097 107.045C90.6718 106.985 90.7316 106.861 90.8558 106.801C90.9488 106.726 91.0518 106.663 91.1618 106.615C91.2239 106.615 91.286 106.555 91.3459 106.493C91.4773 106.424 91.5847 106.316 91.6541 106.185C91.7041 106.045 91.7448 105.902 91.7761 105.757C91.8382 105.633 91.8382 105.511 91.9003 105.386C91.9707 105.197 92.0529 105.013 92.1465 104.834C92.1465 104.772 92.1465 104.772 92.2063 104.772C92.2294 104.748 92.247 104.719 92.2577 104.687C92.2685 104.655 92.2721 104.622 92.2684 104.588C92.3176 104.516 92.3397 104.429 92.3305 104.342C92.3305 104.28 92.2684 104.22 92.2684 104.158V104.036C92.2644 104.002 92.2678 103.968 92.2786 103.936C92.2893 103.904 92.3071 103.874 92.3305 103.85V103.79C92.3342 103.756 92.3306 103.723 92.3198 103.691C92.3091 103.659 92.2916 103.63 92.2684 103.606H92.2063C92.16 103.599 92.1172 103.577 92.0844 103.544C92.0222 103.482 91.9624 103.482 91.9624 103.422C91.9624 103.362 91.9003 103.298 91.9003 103.235V102.992C91.9757 102.921 92.038 102.838 92.0844 102.745C92.191 102.625 92.315 102.521 92.4525 102.437C92.5767 102.375 92.6365 102.315 92.7607 102.253C92.885 102.191 93.1288 102.191 93.3129 102.131C93.4969 102.071 93.7431 102.069 93.9271 102.007C94.0949 101.956 94.2594 101.894 94.4195 101.823C94.5675 101.773 94.7114 101.711 94.8497 101.639C94.9716 101.577 95.0337 101.455 95.0959 101.393C95.158 101.33 95.2178 101.209 95.2799 101.146C95.3295 101.075 95.3516 100.987 95.342 100.9C95.342 100.84 95.2799 100.778 95.2799 100.716C95.2771 100.63 95.2986 100.545 95.342 100.47C95.4018 100.348 95.464 100.164 95.5261 100.04C95.5744 99.9455 95.5951 99.8395 95.5859 99.7339V98.9954C95.5787 98.9496 95.5578 98.9071 95.5261 98.8734C95.464 98.8734 95.464 98.8734 95.4018 98.7515C95.4018 98.6273 95.342 98.3811 95.342 98.197C95.342 98.013 95.2799 97.9509 95.2799 97.7668C95.2799 97.6449 95.2178 97.4609 95.2178 97.3366C95.158 97.2147 95.158 97.1526 95.0959 97.0306C95.0337 96.9685 95.0337 96.8466 94.9716 96.7845L94.7876 96.6004C94.7278 96.5383 94.7278 96.4762 94.7278 96.3543C94.7389 96.2041 94.7804 96.0577 94.8497 95.924C94.8954 95.8314 94.9578 95.7479 95.0337 95.6779C95.0959 95.6158 95.158 95.4938 95.2178 95.4317C95.2776 95.3696 95.4018 95.3098 95.464 95.2477C95.5859 95.1856 95.648 95.1257 95.7722 95.0636C95.8369 94.9666 95.9197 94.8831 96.0161 94.8175C96.1305 94.7511 96.2344 94.6682 96.3244 94.5713C96.4109 94.5161 96.4931 94.4545 96.5706 94.3872C96.6327 94.3251 96.7546 94.1411 96.8765 94.0191C96.9985 93.8972 97.1227 93.8351 97.2469 93.7109C97.3227 93.6406 97.3851 93.5572 97.431 93.4647C97.5365 93.3074 97.6601 93.1631 97.7991 93.0345C97.9585 92.8932 98.147 92.7888 98.3512 92.7285C98.6595 92.6066 99.0897 92.4823 99.4578 92.3604C99.669 92.2709 99.8741 92.1679 100.072 92.0521C100.22 92.0022 100.364 91.9406 100.502 91.8681C100.627 91.8059 100.748 91.8059 100.748 91.7461C100.772 91.7216 100.79 91.6921 100.8 91.6599C100.811 91.6277 100.815 91.5935 100.811 91.5598C100.801 91.4737 100.823 91.3871 100.873 91.3159L100.933 91.2538C100.995 91.2538 101.057 91.1917 101.117 91.1296C101.176 91.0674 101.179 91.0697 101.179 91.0076C101.276 90.9176 101.359 90.8137 101.425 90.6994C101.524 90.6128 101.608 90.5092 101.671 90.3934C101.744 90.255 101.805 90.1112 101.855 89.9632C101.911 89.827 101.932 89.6793 101.917 89.5329C101.917 89.3489 101.855 89.2247 101.855 89.0406V88.6725C101.855 88.5506 101.793 88.4263 101.793 88.3044V87.9363C101.793 87.8121 101.855 87.75 101.855 87.6902V87.444C101.855 87.3819 101.793 87.2599 101.793 87.1978C101.79 87.1116 101.812 87.0263 101.855 86.9517C101.917 86.8895 101.917 86.8297 101.917 86.7055C101.917 86.6457 101.793 86.5214 101.793 86.3995C101.733 86.2753 101.793 86.2155 101.793 86.0912V85.7231C101.793 85.6012 101.733 85.6012 101.733 85.5391C101.733 85.477 101.671 85.4148 101.671 85.355C101.667 85.3217 101.671 85.2879 101.682 85.2561C101.692 85.2243 101.71 85.1953 101.733 85.171C101.809 85.0858 101.852 84.9766 101.855 84.8627C101.886 84.8173 101.903 84.7635 101.903 84.7086C101.903 84.6536 101.886 84.5999 101.855 84.5544V84.4946C101.855 84.4325 101.793 84.3704 101.733 84.3106C101.673 84.2507 101.609 84.1265 101.547 84.0644C101.522 84.0412 101.493 84.0237 101.462 84.0129C101.43 84.0022 101.396 83.9986 101.363 84.0023C101.303 84.0023 101.241 83.9402 101.179 83.8803C101.117 83.8205 100.995 83.8182 100.933 83.7561C100.811 83.6963 100.811 83.5721 100.811 83.4501C100.811 83.388 100.873 83.2661 100.873 83.204C100.86 83.0733 100.818 82.9474 100.748 82.8359C100.748 82.7737 100.686 82.7116 100.627 82.6495C100.549 82.5423 100.505 82.4139 100.502 82.2814C100.449 82.1024 100.429 81.9154 100.442 81.7293V81.605C100.442 81.5452 100.502 81.4831 100.502 81.421V81.1748C100.502 81.115 100.442 81.115 100.442 81.0529V80.8067C100.442 80.7446 100.502 80.6227 100.502 80.5606C100.54 80.5316 100.571 80.4944 100.593 80.4518C100.614 80.4091 100.626 80.3622 100.627 80.3144V80.1303C100.564 80.0705 100.502 80.0084 100.442 79.9463C100.383 79.8842 100.318 79.8842 100.318 79.8244L100.256 79.7622C100.196 79.7001 100.196 79.7001 100.134 79.6403C100.034 79.553 99.9511 79.4486 99.888 79.332C99.829 79.1543 99.8079 78.9662 99.8259 78.7799C99.8586 78.5272 99.9212 78.2793 100.012 78.0414C100.063 77.8147 100.168 77.6039 100.318 77.4271C100.38 77.365 100.38 77.3052 100.442 77.2431C100.518 77.1724 100.58 77.0891 100.627 76.9969C100.731 76.8676 100.814 76.7224 100.873 76.5667C100.933 76.4448 100.933 76.3205 100.995 76.1986C100.995 76.0744 101.057 76.0145 101.117 75.8903L101.303 75.7063C101.363 75.6441 101.363 75.5843 101.425 75.4601V75.276C101.425 75.2162 101.425 75.2162 101.487 75.1541C101.549 75.092 101.609 75.092 101.733 75.0299C101.857 74.9678 101.917 74.9701 101.977 74.9079L102.161 74.7239C102.223 74.6618 102.285 74.5398 102.407 74.4156C102.529 74.2914 102.715 74.1694 102.837 74.0475C102.905 73.9705 102.967 73.8882 103.021 73.8014C103.03 73.8017 103.038 73.8003 103.046 73.7973C103.053 73.7943 103.06 73.7897 103.066 73.7839C103.072 73.778 103.077 73.7711 103.08 73.7634C103.083 73.7557 103.084 73.7475 103.084 73.7392C103.146 73.7392 103.146 73.6794 103.208 73.6794C103.341 73.5852 103.446 73.4574 103.514 73.309C103.537 73.2847 103.555 73.2557 103.565 73.2239C103.576 73.1921 103.58 73.1583 103.576 73.125C103.638 73.003 103.76 72.8811 103.822 72.7569C103.99 72.5385 104.175 72.3332 104.374 72.1426L104.62 71.8964L104.683 71.8343L105.113 71.4041C105.182 71.3288 105.265 71.2665 105.357 71.2201C105.419 71.2201 105.419 71.1602 105.481 71.1602C105.603 71.0981 105.665 70.9739 105.787 70.9141L106.033 70.6679L106.095 70.6058C106.217 70.546 106.279 70.4217 106.403 70.3596C106.463 70.2998 106.525 70.2998 106.587 70.2377C106.647 70.2377 106.647 70.1756 106.709 70.1756C106.717 70.1759 106.725 70.1746 106.733 70.1717C106.74 70.1688 106.747 70.1645 106.753 70.1589C106.759 70.1533 106.764 70.1466 106.767 70.1392C106.77 70.1318 106.771 70.1238 106.771 70.1158C106.982 69.9663 107.209 69.8419 107.448 69.7454C107.508 69.7454 107.508 69.6856 107.57 69.6856C107.692 69.6234 107.754 69.6234 107.878 69.5613C108.034 69.5028 108.179 69.4196 108.308 69.3152C108.542 69.1179 108.749 68.8905 108.923 68.6388C108.922 68.6308 108.924 68.6229 108.926 68.6155C108.929 68.6081 108.934 68.6014 108.939 68.5958C108.945 68.5901 108.952 68.5857 108.959 68.5828C108.966 68.58 108.974 68.5786 108.982 68.579C109.12 68.4487 109.244 68.3045 109.353 68.1487C109.537 67.9647 109.721 67.7185 109.905 67.5345C109.967 67.4724 110.027 67.4102 110.089 67.3504C110.227 67.2207 110.35 67.0765 110.457 66.9202C110.581 66.796 110.643 66.6119 110.765 66.49C110.813 66.3794 110.874 66.2758 110.949 66.1817C111.012 66.1196 111.012 66.0598 111.071 65.9977C111.131 65.9356 111.196 65.8757 111.196 65.8136C111.258 65.7515 111.258 65.6894 111.317 65.6296C111.442 65.4455 111.626 65.1372 111.748 64.9532C111.81 64.829 111.81 64.707 111.872 64.6449C111.872 64.5851 111.932 64.523 111.932 64.4609C111.994 64.2768 112.178 64.0306 112.24 63.8466C112.24 63.8383 112.241 63.8301 112.244 63.8224C112.247 63.8148 112.252 63.8078 112.258 63.802C112.263 63.7961 112.27 63.7916 112.278 63.7886C112.286 63.7855 112.294 63.7842 112.302 63.7845C112.362 63.7247 112.362 63.6625 112.424 63.6625C112.465 63.6097 112.486 63.545 112.486 63.4785C112.486 63.4164 112.548 63.4164 112.548 63.3543V63.1104C112.548 62.9862 112.608 62.9241 112.67 62.8021C112.67 62.7939 112.671 62.7856 112.674 62.778C112.677 62.7703 112.682 62.7633 112.688 62.7575C112.694 62.7516 112.701 62.7471 112.708 62.7441C112.716 62.7411 112.724 62.7397 112.732 62.74C112.792 62.6802 112.854 62.6802 112.854 62.6181C112.981 62.4935 113.085 62.3479 113.163 62.1879C113.311 61.8706 113.434 61.5421 113.531 61.2055C113.587 61.0456 113.627 60.8807 113.653 60.7132V60.5291C113.686 60.3834 113.727 60.2398 113.777 60.0989C113.837 59.9747 113.837 59.9148 113.899 59.7906C113.93 59.6288 113.93 59.4624 113.899 59.3006C114.004 59.0044 114.066 58.6944 114.083 58.3803" fill="#C9AB5C"/>
<path d="M124.275 133.721H123.598V133.535H125.197V133.721H124.521V135.626H124.275V133.721Z" fill="#9D1531"/>
<path d="M127.224 134.703C127.194 134.397 127.194 134.089 127.224 133.783C127.164 134.029 127.04 134.275 126.978 134.584L126.61 135.628H126.426L126.058 134.643C125.956 134.384 125.873 134.117 125.811 133.845C125.819 134.153 125.799 134.461 125.749 134.765L125.689 135.686H125.443L125.565 133.535H125.933L126.304 134.586C126.393 134.823 126.455 135.07 126.488 135.322C126.55 135.138 126.61 134.892 126.734 134.586L127.102 133.539H127.47L127.594 135.69H127.348L127.224 134.703Z" fill="#9D1531"/>
<path d="M125.689 131.876C125.13 131.875 124.583 132.041 124.118 132.351C123.653 132.662 123.29 133.103 123.076 133.62C122.861 134.136 122.805 134.705 122.914 135.253C123.023 135.802 123.292 136.306 123.687 136.702C124.082 137.097 124.586 137.367 125.135 137.476C125.683 137.585 126.252 137.53 126.769 137.316C127.285 137.102 127.727 136.739 128.038 136.274C128.349 135.809 128.515 135.263 128.515 134.703C128.455 133.166 127.224 131.876 125.689 131.876ZM125.689 137.837C125.07 137.834 124.465 137.649 123.952 137.303C123.438 136.957 123.038 136.467 122.803 135.894C122.567 135.322 122.507 134.692 122.629 134.085C122.751 133.478 123.051 132.921 123.489 132.484C123.928 132.046 124.486 131.749 125.094 131.629C125.701 131.509 126.331 131.572 126.903 131.809C127.475 132.047 127.963 132.449 128.307 132.964C128.651 133.479 128.834 134.084 128.834 134.703C128.772 136.424 127.36 137.837 125.701 137.837" fill="#9D1531"/>
</svg>
